<svg xmlns="http://www.w3.org/2000/svg"><symbol id="error" viewBox="0 0 58.8 50.2"><path fill="none" stroke="#fcd997" stroke-linecap="round" stroke-miterlimit="10" stroke-width="4" d="M48 45H11a6.7 6.7 0 0 1-5.5-10.6L24 8.3a6.7 6.7 0 0 1 10.9 0l18.5 26.1A6.7 6.7 0 0 1 48 45z"/><path fill="#fcd997" d="M29 33.9a3.2 3.2 0 1 1 1.7 6.2 3.1 3.1 0 0 1-4-2.3 3.2 3.2 0 0 1 2.3-3.9zM32.2 14l-.7 16.4h-3L27.7 14z"/></symbol><symbol id="hamburger-selected" viewBox="0 0 57.6 57.6"><path fill="none" stroke="#537979" stroke-linecap="round" stroke-miterlimit="10" stroke-width="2" d="M42.4 10.2v37.2m-9.9-37.2v37.2m-9.7-37.2v37.2M13 10.2v37.2"/></symbol><symbol id="hamburger" viewBox="0 0 57.6 57.6"><path fill="none" stroke="#537979" stroke-linecap="round" stroke-miterlimit="10" stroke-width="2" d="M9.2 14.1h37.1M9.2 24h37.1M9.2 33.8h37.1M9.2 43.5h37.1"/></symbol><symbol id="instagram-social" viewBox="0 0 57.6 57.6"><rect width="51.4" height="51.42" x="3.1" y="3.1" fill="none" stroke="#537979" stroke-miterlimit="10" stroke-width="2" rx="7.2"/><path fill="#537979" d="M28.8 45.9h-2.2V11.4h2.2z"/></symbol><symbol id="left-arrow" viewBox="0 0 46.9 34.7"><path fill="none" stroke="#537979" stroke-linecap="round" stroke-miterlimit="10" stroke-width="3" d="M42.8 17.6H4.1m0 0l19.4 13.5M4.1 17.3L23.5 3.8"/></symbol><symbol id="apparel" viewBox="0 0 84.1 74.5"><path fill="#537979" d="M13.2 37a1.5 1.5 0 0 1-2-.5l-5.4-8.6a1.4 1.4 0 0 1-.2-1.1 1.3 1.3 0 0 1 .7-.9l15.2-9.6h.2v-2.5h1.2a3.4 3.4 0 0 0-2.6.5L5 23.9a3.5 3.5 0 0 0-1.7 2.4 3.9 3.9 0 0 0 .5 2.8l5.4 8.7a4.6 4.6 0 0 0 2.4 1.7h.9a3.6 3.6 0 0 0 2-.6l7.2-4.6v-2.6zm67.6-10.7a3.5 3.5 0 0 0-1.7-2.4l-15.3-9.6a3.4 3.4 0 0 0-2.6-.5h.9v2.3l.5.2 15.3 9.6a1.5 1.5 0 0 1 .6.9 1.4 1.4 0 0 1-.2 1.1l-5.4 8.6a1.5 1.5 0 0 1-2 .5l-8.8-5.5v2.8l7.5 4.7a3.6 3.6 0 0 0 2 .6h.9a4.6 4.6 0 0 0 2.4-1.7l5.4-8.7a3.9 3.9 0 0 0 .5-2.9z"/><path fill="#537979" d="M59.7 64.6a1.8 1.8 0 0 1-1.7 1.8H25.9a1.8 1.8 0 0 1-1.8-1.8V33l-2.4 1.4v30.2a4.1 4.1 0 0 0 4.2 4.1H58a4.1 4.1 0 0 0 4.1-4.1V34.3l-2.4-1.5zm-38-48.4h4.2l-.4-.7a4.3 4.3 0 0 0-2.4-1.7h-1.4z"/><path fill="#537979" d="M24.1 30.2l-2.4 1.5v2.7l2.4-1.4v-2.8zm35.6-.2v2.8l2.4 1.5v-2.8L59.7 30zm2.4-13.9v-2.3H61a4.3 4.3 0 0 0-2.4 1.7l-.4.7h3.9z"/><rect width="12.3" height="21.34" x="25.2" y="8.1" fill="#537979" rx="2.9" transform="rotate(-45 31.437 18.678)"/><rect width="12.2" height="20.61" x="46.4" y="8.4" fill="#537979" rx="2.9" transform="rotate(-135 52.461 18.748)"/><path fill="#537979" d="M54.6 22.4H28.9a5.5 5.5 0 0 1-5.5-5.5v-3.2a5.5 5.5 0 0 1 5.5-5.5h25.7a5.5 5.5 0 0 1 5.5 5.5v3.2a5.5 5.5 0 0 1-5.5 5.5zM28.9 10.6a3.2 3.2 0 0 0-3.2 3.1v3.2a3.2 3.2 0 0 0 3.2 3.1h25.7a3.1 3.1 0 0 0 3.1-3.1v-3.2a3.1 3.1 0 0 0-3.1-3.1zm17.9 20.5h9.1a1 1 0 0 1 1 1v9.6a3.8 3.8 0 0 1-3.8 3.8h-3.5a3.8 3.8 0 0 1-3.8-3.8V32a1 1 0 0 1 1-1z"/></symbol><symbol id="electronics" viewBox="0 0 84.1 74.5"><path fill="#537979" d="M23.9 18.6H8.6v-2.7a4.3 4.3 0 0 1 4.3-4.3h6.7a4.4 4.4 0 0 1 4.3 4.3zm-13.1-2.2h10.8v-.5a2 2 0 0 0-2-2h-6.7a2.1 2.1 0 0 0-2.1 2zM37 18.6H25.1v-2.7a4.4 4.4 0 0 1 4.3-4.3h3.3a4.3 4.3 0 0 1 4.3 4.3zm-9.6-2.2h7.3v-.5a2 2 0 0 0-2-2h-3.3a2 2 0 0 0-2 2z"/><path fill="#537979" d="M80.1 36.3v21.5a7.8 7.8 0 0 1-7.8 7.8H11.9a7.8 7.8 0 0 1-7.8-7.8V24.1a7.7 7.7 0 0 1 7.8-7.7h27.8l-1 2.2H11.9a5.6 5.6 0 0 0-5.6 5.5v33.7a5.6 5.6 0 0 0 5.6 5.5h60.4a5.5 5.5 0 0 0 5.5-5.5V36.3z"/><path fill="#537979" d="M80.1 24.1v12.2h-2.3V24.1a5.5 5.5 0 0 0-5.5-5.5h-7.5l-1-2.2h8.5a7.7 7.7 0 0 1 7.8 7.7z"/><path fill="#537979" d="M63.8 16.4l1 2.2H63a1.4 1.4 0 0 1-1.2-.7L60 14.6l1.1 1.8z"/><path fill="#537979" d="M59.5 9.5l4.3 6.9-3.8-1.8-2.1-3.3a.8.8 0 0 0-.7-.3H46.1a.9.9 0 0 0-.7.3l-2 3.3-3.7 1.8 4.1-6.9a1.7 1.7 0 0 1 1.4-.6h12.9a1.7 1.7 0 0 1 1.4.6z"/><path fill="#537979" d="M63.8 16.4h-2.7L60 14.6l3.8 1.8zm-20.4-1.8v.1l-1.1 1.7h-2.6l3.7-1.8z"/><path fill="#537979" d="M43.4 14.7l-1.7 3.2a1.4 1.4 0 0 1-1.2.7h-1.8l1-2.2h2.6zm8.3 43.1a17.2 17.2 0 1 1 17.2-17.2 17.2 17.2 0 0 1-17.2 17.2zm0-32a14.9 14.9 0 1 0 14.9 14.8 14.9 14.9 0 0 0-14.9-14.8z"/><circle cx="51.7" cy="40.6" r="9.6" fill="#537979"/><path fill="#537979" d="M80.1 26.4a9.9 9.9 0 0 0-9.8-9.8H12.5a8.4 8.4 0 0 0-8.4 8.5v11.2h29.6a18.5 18.5 0 0 1 36 0h10.4z"/><path fill="#537979" d="M58.6 10.2l4.3 7.2-22.2-.8 4.1-6.4h13.8z"/></symbol><symbol id="music" viewBox="0 0 84.1 74.5"><path fill="#537979" d="M69.3 46.1h-2.9a2.5 2.5 0 0 1-1.9-.9 2.9 2.9 0 0 1-.5-2.1 26.3 26.3 0 0 0 .5-5.7c0-14.7-10.1-26.6-22.4-26.6S19.6 22.7 19.6 37.4a37.9 37.9 0 0 0 .5 5.8 2.4 2.4 0 0 1-.5 2 2.3 2.3 0 0 1-1.9.9h-2.9a2.5 2.5 0 0 1-2.4-2 50.4 50.4 0 0 1-.5-6.7c0-19.1 13.5-34.6 30.2-34.6s30.1 15.5 30.1 34.6a50.4 50.4 0 0 1-.5 6.7 2.5 2.5 0 0 1-2.4 2zM42.1 8.8c13.4 0 24.4 12.8 24.4 28.6a40.7 40.7 0 0 1-.5 6.1c-.1.2 0 .3.1.4s.1.2.3.2h2.9a.4.4 0 0 0 .4-.4 33.5 33.5 0 0 0 .5-6.3c0-18-12.6-32.6-28.1-32.6S13.9 19.4 13.9 37.4a44.6 44.6 0 0 0 .5 6.3.4.4 0 0 0 .4.4h2.9c.2 0 .3-.1.3-.2s.2-.2.1-.4a40.7 40.7 0 0 1-.5-6.1c0-15.8 11-28.6 24.5-28.6z"/><path fill="#537979" d="M17.4 51.2a1.1 1.1 0 0 1-.9-.5 19 19 0 0 1-1.2-4.6.9.9 0 0 1 .8-1.1 1 1 0 0 1 1.1.8 16.5 16.5 0 0 0 1.1 4 1.1 1.1 0 0 1-.4 1.3z"/><path fill="#537979" d="M22.2 71.4h-.8a2 2 0 0 1-1.1-1.1l-6.9-17.4a2 2 0 0 1 0-1.5 2 2 0 0 1 1.1-1.1l5.1-2a2 2 0 0 1 2.6 1.1l6.9 17.3a2 2 0 0 1 0 1.5 2.5 2.5 0 0 1-1.2 1.1l-5 2zm-1.9-21.3l-5 2 6.8 17.3 5.1-2z"/><rect width="12.6" height="25.87" x="23.9" y="42.2" fill="#537979" rx="6.3" transform="rotate(-21.7 30.292 55.029)"/><path fill="#537979" d="M66.3 51.2h-.5a.9.9 0 0 1-.4-1.3 20.6 20.6 0 0 0 1-4 1 1 0 0 1 1.2-.8 1 1 0 0 1 .8 1.1 19 19 0 0 1-1.2 4.6 1.2 1.2 0 0 1-.9.4z"/><path fill="#537979" d="M61.5 71.4h-.7l-5.1-2a2 2 0 0 1-1.1-1.1 1.9 1.9 0 0 1 0-1.5l6.9-17.3a2 2 0 0 1 2.6-1.1l5 2a2 2 0 0 1 1.2 2.6l-6.9 17.2a2 2 0 0 1-1.9 1.2zm1.9-21.3l-7 17.3h.1l5 2 6.9-17.2z"/><rect width="12.6" height="25.87" x="47.1" y="42.2" fill="#537979" rx="6.3" transform="rotate(-158.3 53.434 55.125)"/></symbol><symbol id="facebook-social" viewBox="0 0 57.6 57.6"><rect width="51.4" height="51.42" x="3.1" y="3.1" fill="none" stroke="#537979" stroke-miterlimit="10" stroke-width="2" rx="7.2"/><path fill="#537979" d="M26.9 34.1h3.3v2h-3.3v9.8h-2.2V15.3c0-2.9.1-4.8 5.5-3.8v2.2c-3.3-.7-3.3 0-3.3 1.4z"/></symbol><symbol id="movies" viewBox="0 0 84.1 74.5"><path fill="#537979" d="M70.5 70.3H14.4a3.1 3.1 0 0 1-3-3l.4-36.3h58.7a3 3 0 0 1 2.9 3v33.3a3 3 0 0 1-2.9 3zM13.8 33l-.4 34.3a1.1 1.1 0 0 0 1 1h56.1a1 1 0 0 0 .9-1V34a1 1 0 0 0-.9-1z"/><path fill="#537979" d="M12.3 33.6l-3-9.5a2.3 2.3 0 0 1 1.6-2.9L65.5 3.9a2.3 2.3 0 0 1 2.9 1.5l2.3 7.3a2.3 2.3 0 0 1-.1 1.8 2.6 2.6 0 0 1-1.4 1.1zM66.2 5.8h-.1L11.5 23.1c-.2 0-.3.2-.3.4l2.4 7.6 55-17.4a.2.2 0 0 0 .2-.2.1.1 0 0 0 0-.2L66.5 6z"/><path fill="#537979" d="M20.3 30l-9.7-7.6 6.8-2.3 9.9 7.7-7 2.2zm13.2-4.1l-9.7-7.7 6.8-2.2 9.8 7.7-6.9 2.2zm13.1-4.2l-9.7-7.6 6.8-2.3 9.8 7.7-6.9 2.2zm13.1-4.2L50 9.9l6.8-2.3 9.8 7.7-6.9 2.2zM14.2 43.4a2.4 2.4 0 0 1-2.4-2.4v-7.6a2.5 2.5 0 0 1 2.3-2.4l59.3-.3v10a2.4 2.4 0 0 1-.7 1.6 3 3 0 0 1-1.7.8l-56.9.3zM14.1 33a.4.4 0 0 0-.4.4V41a.3.3 0 0 0 .1.2c0 .1.1.2.3.2l56.9-.3.3-.2v-8.2z"/><path fill="#537979" d="M23.4 31.8l-7 10.1 7.2.2 7-10.3h-7.2zm13.7.1l-7 10.1 7.2.2 7-10.3h-7.2zm13.7.1l-7 10.1 7.1.2L58 32h-7.2zm13.7 0l-7 10.2 7.1.2 7.1-10.3-7.2-.1zm-1.8 19.6H22.1a1 1 0 0 1-1-1 .9.9 0 0 1 1-1h40.6a1 1 0 0 1 1 1 1.1 1.1 0 0 1-1 1zm0 8.2H22.1a.9.9 0 0 1-1-1 1 1 0 0 1 1-1h40.6a1.1 1.1 0 0 1 1 1 1 1 0 0 1-1 1z"/></symbol><symbol id="shopping-cart" viewBox="0 0 50.4 64.8"><path fill="#537979" d="M25.2 4.8C16.7 4.8 9.7 14 9.7 25.4h2.2c0-9.8 6-17.8 13.3-17.8s13.4 8 13.4 17.8h2.2c0-11.4-7-20.6-15.6-20.6zm17.2 22.4H8.1a4 4 0 0 0-4 4V56a4 4 0 0 0 4 4h34.3a4 4 0 0 0 4-4V31.2a4 4 0 0 0-4-4zm2.1 27.7a2.8 2.8 0 0 1-2.9 2.8H8.9A2.8 2.8 0 0 1 6 54.9V32.4a2.9 2.9 0 0 1 2.9-2.9h32.7a2.9 2.9 0 0 1 2.9 2.9z"/></symbol><symbol id="right-arrow" viewBox="0 0 46.9 34.7"><path fill="none" stroke="#537979" stroke-linecap="round" stroke-miterlimit="10" stroke-width="3" d="M4.1 17.6h38.7m0 0L23.5 31.1m19.3-13.8L23.5 3.8"/></symbol><symbol id="twitter-social" viewBox="0 0 57.6 57.6"><rect width="51.4" height="51.42" x="3.1" y="3.1" fill="none" stroke="#537979" stroke-miterlimit="10" stroke-width="2" rx="7.2"/><path fill="#537979" d="M30.5 13.6h-1.9v32.3h-2.2V13.6H24l.9-2.2h5.6z"/></symbol></svg>