<svg xmlns="http://www.w3.org/2000/svg"><symbol id="error" viewBox="0 0 58.8 50.2"><path fill="none" stroke="#fcd997" stroke-linecap="round" stroke-miterlimit="10" stroke-width="4" d="M48 45H11a6.7 6.7 0 0 1-5.5-10.6L24 8.3a6.7 6.7 0 0 1 10.9 0l18.5 26.1A6.7 6.7 0 0 1 48 45z"/><path fill="#fcd997" d="M29 33.9a3.2 3.2 0 1 1 1.7 6.2 3.1 3.1 0 0 1-4-2.3 3.2 3.2 0 0 1 2.3-3.9zM32.2 14l-.7 16.4h-3L27.7 14z"/></symbol><symbol id="facebook-social" viewBox="0 0 57.6 57.6"><rect width="51.4" height="51.42" x="3.1" y="3.1" fill="none" stroke="#537979" stroke-miterlimit="10" stroke-width="2" rx="7.2" ry="7.2"/><path fill="#537979" d="M26.9 34.1h3.3v2h-3.3v9.8h-2.2V15.3c0-2.9.1-4.8 5.5-3.8v2.2c-3.3-.7-3.3 0-3.3 1.4z"/></symbol><symbol id="instagram-social" viewBox="0 0 57.6 57.6"><rect width="51.4" height="51.42" x="3.1" y="3.1" fill="none" stroke="#537979" stroke-miterlimit="10" stroke-width="2" rx="7.2" ry="7.2"/><path fill="#537979" d="M28.8 45.9h-2.2V11.4h2.2z"/></symbol><symbol id="hamburger" viewBox="0 0 57.6 57.6"><path fill="none" stroke="#537979" stroke-linecap="round" stroke-miterlimit="10" stroke-width="2" d="M9.2 14.1h37.1M9.2 24h37.1M9.2 33.8h37.1M9.2 43.5h37.1"/></symbol><symbol id="shopping-cart" viewBox="0 0 50.4 64.8"><path fill="#537979" d="M25.2 4.8C16.7 4.8 9.7 14 9.7 25.4h2.2c0-9.8 6-17.8 13.3-17.8s13.4 8 13.4 17.8h2.2c0-11.4-7-20.6-15.6-20.6zm17.2 22.4H8.1a4 4 0 0 0-4 4V56a4 4 0 0 0 4 4h34.3a4 4 0 0 0 4-4V31.2a4 4 0 0 0-4-4zm2.1 27.7a2.8 2.8 0 0 1-2.9 2.8H8.9A2.8 2.8 0 0 1 6 54.9V32.4a2.9 2.9 0 0 1 2.9-2.9h32.7a2.9 2.9 0 0 1 2.9 2.9z"/></symbol><symbol id="twitter-social" viewBox="0 0 57.6 57.6"><rect width="51.4" height="51.42" x="3.1" y="3.1" fill="none" stroke="#537979" stroke-miterlimit="10" stroke-width="2" rx="7.2" ry="7.2"/><path fill="#537979" d="M30.5 13.6h-1.9v32.3h-2.2V13.6H24l.9-2.2h5.6z"/></symbol><symbol id="hamburger-selected" viewBox="0 0 57.6 57.6"><path fill="none" stroke="#537979" stroke-linecap="round" stroke-miterlimit="10" stroke-width="2" d="M42.4 10.2v37.2m-9.9-37.2v37.2m-9.7-37.2v37.2M13 10.2v37.2"/></symbol><symbol id="sign-up-arrow" viewBox="0 0 46.9 34.7"><path fill="none" stroke="#537979" stroke-linecap="round" stroke-miterlimit="10" stroke-width="3" d="M4.1 17.6h38.7m0 0L23.5 31.1m19.3-13.8L23.5 3.8"/></symbol></svg>