<svg id="Layer_1" data-name="Layer 1" xmlns="http://www.w3.org/2000/svg" xmlns:xlink="http://www.w3.org/1999/xlink" width="256" height="171.1" viewBox="0 0 256 171.1"><defs><clipPath id="clip-path"><path d="M90.7,117.3l.6-.5c0,2.1.5,3.4,3.3,3.4a20.7,20.7,0,0,0,4.3-.6l-.6.6a19.3,19.3,0,0,1-4.2.5C91.2,120.7,90.7,119.4,90.7,117.3Z" fill="none"/></clipPath><clipPath id="clip-path-2"><path d="M91.5,76.4l.5-.6a3.8,3.8,0,0,0-.8,2.7l-.5.5A3.5,3.5,0,0,1,91.5,76.4Z" fill="none"/></clipPath><clipPath id="clip-path-3"><path d="M87.9,72.8l.5-.6c1-1,2.7-1.6,5.2-1.6l-.6.6C90.5,71.2,88.9,71.7,87.9,72.8Z" fill="none"/></clipPath><clipPath id="clip-path-4"><path d="M93,71.2l.6-.6a27.6,27.6,0,0,1,5.2.6l-.5.6A22,22,0,0,0,93,71.2Z" fill="none"/></clipPath><clipPath id="clip-path-5"><path d="M127.5,118.4l.5-.5c0,5,1.7,6.2,1.7,6.2l-.5.6C129.1,124.6,127.5,123.4,127.5,118.4Z" fill="none"/></clipPath><clipPath id="clip-path-6"><path d="M122,104.1l-.5.6a2.7,2.7,0,0,1-1.8.7h-1l.5-.6h1.1A2.1,2.1,0,0,0,122,104.1Z" fill="none"/></clipPath><clipPath id="clip-path-7"><path d="M125.9,105.3l-.6.6c1.6-1.6,2.2-3.9,2.2-8.2l.5-.6C128,101.4,127.4,103.8,125.9,105.3Z" fill="none"/></clipPath><clipPath id="clip-path-8"><path d="M119.7,71.6l.6-.5c5.9,0,7.7,1.9,7.7,8.5l-.5.6C127.5,73.5,125.7,71.6,119.7,71.6Z" fill="none"/></clipPath><clipPath id="clip-path-9"><path d="M138.3,117.3l.6-.5c0,2.1.5,3.4,3.3,3.4a20.7,20.7,0,0,0,4.3-.6l-.6.6a18.7,18.7,0,0,1-4.2.5C138.8,120.7,138.3,119.4,138.3,117.3Z" fill="none"/></clipPath><clipPath id="clip-path-10"><path d="M139.1,76.4l.5-.6a3.8,3.8,0,0,0-.7,2.7l-.6.5A3.5,3.5,0,0,1,139.1,76.4Z" fill="none"/></clipPath><clipPath id="clip-path-11"><path d="M135.5,72.8l.5-.6c1.1-1,2.7-1.6,5.2-1.6l-.6.6C138.1,71.2,136.5,71.7,135.5,72.8Z" fill="none"/></clipPath><clipPath id="clip-path-12"><path d="M140.6,71.2l.6-.6a29.5,29.5,0,0,1,5.3.6l-.6.6A22,22,0,0,0,140.6,71.2Z" fill="none"/></clipPath><clipPath id="clip-path-13"><path d="M178.7,118.4l.5-.5c0,5,1.7,6.2,1.7,6.2l-.5.6C180.3,124.6,178.7,123.4,178.7,118.4Z" fill="none"/></clipPath><clipPath id="clip-path-14"><path d="M173.2,104.1l-.5.6a2.7,2.7,0,0,1-1.8.7h-1l.5-.6h1.1A2.1,2.1,0,0,0,173.2,104.1Z" fill="none"/></clipPath><clipPath id="clip-path-15"><path d="M177.1,105.3l-.6.6c1.6-1.6,2.2-3.9,2.2-8.2l.5-.6C179.2,101.4,178.6,103.8,177.1,105.3Z" fill="none"/></clipPath><clipPath id="clip-path-16"><path d="M170.9,71.6l.6-.5c5.9,0,7.7,1.9,7.7,8.5l-.5.6C178.7,73.5,176.9,71.6,170.9,71.6Z" fill="none"/></clipPath><clipPath id="clip-path-17"><path d="M191.5,120l-.5.6a2.1,2.1,0,0,1-1.5.4c-1.4,0-2.1-.6-2.1-2.5l.5-.5c0,1.9.8,2.5,2.2,2.5A1.6,1.6,0,0,0,191.5,120Z" fill="none"/></clipPath><clipPath id="clip-path-18"><path d="M194.9,123.1l-.5.5c1.1-1.1,1.8-2.8,1.8-5.5l.5-.5C196.7,120.2,196,122,194.9,123.1Z" fill="none"/></clipPath><clipPath id="clip-path-19"><path d="M188,75.8l.5-.6a2.9,2.9,0,0,0-.6,2.1l-.5.5A2.5,2.5,0,0,1,188,75.8Z" fill="none"/></clipPath><clipPath id="clip-path-20"><path d="M184.6,72.7l.6-.5a6.3,6.3,0,0,1,4.8-1.7l-.6.5A6.9,6.9,0,0,0,184.6,72.7Z" fill="none"/></clipPath><clipPath id="clip-path-21"><path d="M189.4,71l.6-.5c3.2,0,6.7,1.3,6.7,7.1l-.5.6C196.2,72.4,192.6,71,189.4,71Z" fill="none"/></clipPath></defs><title>logo-256</title><rect x="70.7" y="94.1" width="115.8" height="74.56" rx="1.4" fill="#4f4947"/><rect x="77.3" y="111.5" width="102.5" height="49.87" rx="0.7" fill="#acbebe"/><rect x="95.2" y="123.2" width="66.8" height="26.63" rx="1.2" fill="#4f4947"/><path d="M164.6,106.2H91.9a2.4,2.4,0,0,1-2.3-1.9L87.4,91a2.4,2.4,0,0,1,2.3-2.7h77.4a2.2,2.2,0,0,1,2.2,2.7l-2.5,13.3A2.2,2.2,0,0,1,164.6,106.2Z" fill="#3d3634"/><circle cx="109.1" cy="136.5" r="8.5" fill="#3d3634"/><circle cx="109.1" cy="136.5" r="5.9" fill="#fff"/><circle cx="148" cy="136.5" r="8.5" fill="#3d3634"/><circle cx="148" cy="136.5" r="5.9" fill="#fff"/><path d="M126.7,4.9A57.9,57.9,0,0,0,68.8,62.8h35.6a22.3,22.3,0,0,1,44.5,0h35.6A57.8,57.8,0,0,0,126.7,4.9Z" fill="#3d3735"/><path d="M126.7,58.8a3.9,3.9,0,0,1,3.9,4h18.3a22.3,22.3,0,0,0-44.5,0h18.3A4,4,0,0,1,126.7,58.8Z" fill="#acbebe"/><path d="M126.7,58.9a4,4,0,0,0-4,4h8A4,4,0,0,0,126.7,58.9Z" fill="#3d3735"/><path d="M126.7,61.2a1.6,1.6,0,0,0-1.6,1.5h3.1A1.5,1.5,0,0,0,126.7,61.2Z" fill="#fff"/><path d="M247.7,71.9a2.1,2.1,0,0,1,1.8,3.3L229,106.7a2,2,0,0,0,0,2.3l20.5,31.5a2.1,2.1,0,0,1-1.8,3.3h-51V71.9Z" fill="#47413f"/><path d="M60.1,71.9v71.9H8.3a2.1,2.1,0,0,1-1.8-3.3L27.1,109a2.4,2.4,0,0,0,0-2.3L6.5,75.2a2.1,2.1,0,0,1,1.8-3.3Z" fill="#47413f"/><rect x="47.5" y="62.8" width="162" height="71.82" fill="#4f4947"/><polyline points="196.7 134.6 209.4 134.6 196.8 143.8" fill="#3d3735"/><polyline points="60.1 134.6 47.5 134.6 60.1 143.8" fill="#3d3735"/><g style="isolation:isolate"><polygon points="62.6 76 63.1 75.5 63.1 124.1 62.6 124.7 62.6 76" fill="#656f6f"/><polygon points="66.4 71.6 66.4 76 62.6 76 62.6 124.7 58.1 124.7 58.1 76 53.1 76 54.9 71.6 66.4 71.6" fill="#94a3a3"/><polygon points="66.4 71.6 67 71.1 67 75.5 66.4 76 66.4 71.6" fill="#656f6f"/><polygon points="54.9 71.6 55.5 71.1 67 71.1 66.4 71.6 54.9 71.6" fill="#616b6b"/></g><g style="isolation:isolate"><polygon points="73.8 109.6 74.3 109.1 74.3 124.1 73.8 124.7 73.8 109.6" fill="#656f6f"/><polygon points="73.8 105.4 74.3 104.8 78.6 104.8 78 105.4 73.8 105.4" fill="#616b6b"/><polygon points="69.1 71.6 69.7 71.1 74.3 71.1 73.8 71.6 69.1 71.6" fill="#616b6b"/><polygon points="73.8 71.6 74.3 71.1 74.3 104.8 73.8 105.4 73.8 71.6" fill="#656f6f"/><polygon points="82.5 71.6 82.5 124.7 78 124.7 78 109.6 73.8 109.6 73.8 124.7 69.2 124.7 69.1 71.6 73.8 71.6 73.8 105.4 78 105.4 78 71.6 82.5 71.6" fill="#94a3a3"/><polygon points="82.5 71.6 83 71.1 83.1 124.1 82.5 124.7 82.5 71.6" fill="#656f6f"/><polygon points="78 71.6 78.5 71.1 83 71.1 82.5 71.6 78 71.6" fill="#616b6b"/></g><g style="isolation:isolate"><polygon points="98.3 120.2 98.9 119.6 98.9 124.1 98.3 124.6 98.3 120.2" fill="#656f6f"/><g style="isolation:isolate"><g clip-path="url(#clip-path)"><g style="isolation:isolate"><path d="M90.7,117.3l.6-.5v1l-.5.5a3.1,3.1,0,0,1-.1-1" fill="#677272"/><path d="M90.8,118.3l.5-.5c0,.2.1.4.1.6l-.5.6a1.7,1.7,0,0,1-.1-.7" fill="#6b7676"/><path d="M90.9,119l.5-.6a1.6,1.6,0,0,0,.3.6l-.5.6-.3-.6" fill="#6e7a7a"/><path d="M91.2,119.6l.5-.6a1,1,0,0,0,.4.5l-.5.6-.4-.5" fill="#727d7d"/><path d="M91.6,120.1l.5-.6.5.3-.5.6-.5-.3" fill="#6e7a7a"/><path d="M92.1,120.4l.5-.6.5.2-.6.6-.4-.2" fill="#6b7676"/><path d="M92.5,120.6l.6-.6h.6l-.6.6h-.6" fill="#677272"/><path d="M93.1,120.7l.6-.6h1l-.6.5h-1" fill="#646e6e"/><path d="M94.1,120.7l.6-.5,2.1-.2-.5.6H94.1" fill="#606a6a"/><path d="M96.3,120.6l.5-.6,2.1-.4-.6.6-2,.4" fill="#5d6767"/></g></g></g><polygon points="90.7 109.6 91.3 109.1 91.3 116.8 90.7 117.3 90.7 109.6" fill="#656f6f"/><polygon points="90.7 105.4 91.3 104.8 98 104.8 97.5 105.4 90.7 105.4" fill="#616b6b"/><polygon points="97.5 105.4 98 104.8 98 109.1 97.5 109.6 97.5 105.4" fill="#656f6f"/><polygon points="90.7 79 91.2 78.5 91.3 104.8 90.7 105.4 90.7 79" fill="#656f6f"/><g style="isolation:isolate"><g clip-path="url(#clip-path-2)"><g style="isolation:isolate"><path d="M91.5,76.4l.5-.6-.4.5-.5.6a1,1,0,0,1,.4-.5" fill="#596363"/><path d="M91.1,76.9l.5-.6c0,.2-.1.3-.1.5l-.6.5.2-.4" fill="#5d6767"/><path d="M90.9,77.3l.6-.5c-.1.1-.1.3-.2.5l-.5.5c0-.2.1-.3.1-.5" fill="#606a6a"/><path d="M90.8,77.8l.5-.5a2.8,2.8,0,0,1-.1.9l-.5.6a3.1,3.1,0,0,1,.1-1" fill="#646e6e"/><path d="M90.7,78.8l.5-.6v.3l-.5.5v-.2" fill="#677272"/></g></g></g><g style="isolation:isolate"><g clip-path="url(#clip-path-3)"><g style="isolation:isolate"><path d="M87.9,72.8l.5-.6a4.3,4.3,0,0,1,2-1.1l-.6.5a5.2,5.2,0,0,0-1.9,1.2" fill="#596363"/><path d="M89.8,71.6l.6-.5,1.3-.4-.5.6-1.4.3" fill="#5d6767"/><path d="M91.2,71.3l.5-.6h1.8l-.5.6H91.2" fill="#606a6a"/><path d="M93,71.2l.5-.6h.1l-.6.6h0" fill="#646e6e"/></g></g></g><polygon points="98.3 71.8 98.8 71.2 98.8 75.7 98.3 76.2 98.3 71.8" fill="#656f6f"/><g style="isolation:isolate"><g clip-path="url(#clip-path-4)"><g style="isolation:isolate"><path d="M93,71.2l.6-.6,3,.2-.5.6a17.2,17.2,0,0,0-3.1-.2" fill="#646e6e"/><path d="M96.1,71.4l.5-.6,2.2.4-.5.6-2.2-.4" fill="#677272"/></g></g></g><path d="M93,71.2a22,22,0,0,1,5.3.6v4.4a20.8,20.8,0,0,0-4.2-.6c-2.9,0-3.4,1.4-3.4,3.4v26.4h6.8v4.2H90.7v7.7c0,2.1.5,3.4,3.4,3.4a19.3,19.3,0,0,0,4.2-.5v4.4a28.5,28.5,0,0,1-5.2.6c-6.2,0-6.9-3.5-6.9-8.3V79.5C86.1,74.7,86.9,71.2,93,71.2Z" fill="#94a3a3"/></g><g style="isolation:isolate"><polygon points="111.7 105.4 112.2 104.8 114.6 104.8 114.1 105.4 111.7 105.4" fill="#616b6b"/><g style="isolation:isolate"><g clip-path="url(#clip-path-5)"><g style="isolation:isolate"><path d="M127.5,118.4l.5-.5a13.8,13.8,0,0,0,.2,2.2l-.6.5a14.1,14.1,0,0,1-.1-2.2" fill="#677272"/><path d="M127.6,120.6l.6-.5a8.4,8.4,0,0,0,.3,1.8l-.5.6a7.8,7.8,0,0,1-.4-1.9" fill="#6b7676"/><path d="M128,122.5l.5-.6a5.7,5.7,0,0,0,.6,1.5l-.5.5a6.4,6.4,0,0,1-.6-1.4" fill="#6e7a7a"/><path d="M128.6,123.9l.5-.5.6.7-.6.5a2.5,2.5,0,0,1-.5-.7" fill="#727d7d"/><path d="M129.1,124.6l.6-.5h0l-.5.6a.1.1,0,0,0-.1-.1" fill="#6e7a7a"/></g></g></g><polygon points="118.7 109.6 119.2 109.1 119.2 124.1 118.7 124.7 118.7 109.6" fill="#656f6f"/><g style="isolation:isolate"><g clip-path="url(#clip-path-6)"><g style="isolation:isolate"><path d="M118.7,105.4l.5-.6h1.1l-.5.6h-1.1" fill="#646e6e"/><path d="M119.8,105.4l.5-.6h.4l-.5.5h-.4" fill="#606a6a"/><path d="M120.2,105.3l.5-.5h.5l-.6.5h-.4" fill="#5d6767"/><path d="M120.6,105.2l.6-.5a1.6,1.6,0,0,0,.8-.6l-.5.6a2.6,2.6,0,0,1-.9.5" fill="#596363"/></g></g></g><polygon points="124.7 106.4 125.2 105.9 128 105.9 127.5 106.4 124.7 106.4" fill="#616b6b"/><polygon points="127.5 106.4 128 105.9 128 117.9 127.5 118.5 127.5 106.4" fill="#656f6f"/><g style="isolation:isolate"><g clip-path="url(#clip-path-7)"><g style="isolation:isolate"><path d="M127.5,97.7l.5-.6v1l-.5.5v-.9" fill="#677272"/><path d="M127.5,98.6l.5-.5a26.9,26.9,0,0,1-.2,3.1l-.6.5a25.1,25.1,0,0,0,.3-3.1" fill="#646e6e"/><path d="M127.2,101.7l.6-.5a15.5,15.5,0,0,1-.4,1.5l-.5.6.3-1.6" fill="#606a6a"/><path d="M126.9,103.3l.5-.6a4.3,4.3,0,0,1-.5,1.2l-.5.5a11.7,11.7,0,0,0,.5-1.1" fill="#5d6767"/><path d="M126.4,104.4l.5-.5a7.1,7.1,0,0,1-1,1.4l-.6.6a5.8,5.8,0,0,0,1.1-1.5" fill="#596363"/></g></g></g><polygon points="118.7 76 119.2 75.5 119.2 104.8 118.7 105.4 118.7 76" fill="#656f6f"/><polygon points="127.5 80.2 128 79.6 128 97.1 127.5 97.7 127.5 80.2" fill="#656f6f"/><polygon points="114 71.6 114.6 71.1 120.3 71.1 119.7 71.6 114 71.6" fill="#616b6b"/><path d="M127.5,118.4c0,5,1.6,6.2,1.7,6.3h-4.5c-.1-.1-1.8-.6-1.8-6.3v-8.8h-4.2v15.1h-4.6V109.6h-4.2l1.8-4.2h2.4V71.6h5.7c6,0,7.8,1.9,7.8,8.6V97.7c0,4.8-.7,7.1-2.8,8.7h2.8Zm-4.6-20.3V78.8c0-2.3-.5-2.8-3-2.8h-1.2v29.4h1c2.4,0,3.2-2.4,3.2-7.3" fill="#94a3a3"/><g style="isolation:isolate"><g clip-path="url(#clip-path-8)"><g style="isolation:isolate"><path d="M119.7,71.6l.6-.5h2.4l-.5.6-2.5-.2" fill="#646e6e"/><path d="M122.2,71.8l.5-.6,1.3.3-.5.5-1.3-.2" fill="#677272"/><path d="M123.5,72l.5-.5,1,.4-.5.5-1-.4" fill="#6b7676"/><path d="M124.5,72.4l.5-.5a3.3,3.3,0,0,1,1,.6l-.5.5-1-.6" fill="#6e7a7a"/><path d="M125.5,73l.5-.5.9,1-.6.6a4.4,4.4,0,0,0-.8-1.1" fill="#727d7d"/><path d="M126.3,74.1l.6-.6.6,1.5-.5.6a5.2,5.2,0,0,0-.7-1.5" fill="#6e7a7a"/><path d="M127,75.6l.5-.6a8,8,0,0,1,.4,1.8l-.6.5-.3-1.7" fill="#6b7676"/><path d="M127.3,77.3l.6-.5a24.4,24.4,0,0,1,.1,2.8l-.5.6a24.8,24.8,0,0,0-.2-2.9" fill="#677272"/></g></g></g></g><g style="isolation:isolate"><g style="isolation:isolate"><g clip-path="url(#clip-path-9)"><g style="isolation:isolate"><path d="M138.3,117.3l.6-.5v1l-.5.5a3.1,3.1,0,0,1-.1-1" fill="#677272"/><path d="M138.4,118.3l.5-.5c.1.2.1.4.2.6l-.6.6c0-.2-.1-.5-.1-.7" fill="#6b7676"/><path d="M138.5,119l.6-.6a.8.8,0,0,0,.2.6l-.5.6-.3-.6" fill="#6e7a7a"/><path d="M138.8,119.6l.5-.6.4.5-.5.6-.4-.5" fill="#727d7d"/><path d="M139.2,120.1l.5-.6.5.3-.5.6-.5-.3" fill="#6e7a7a"/><path d="M139.7,120.4l.5-.6.5.2-.6.6-.4-.2" fill="#6b7676"/><path d="M140.1,120.6l.6-.6h.6l-.5.6h-.7" fill="#677272"/><path d="M140.8,120.7l.5-.6h1l-.6.5h-.9" fill="#646e6e"/><path d="M141.7,120.7l.6-.5,2.1-.2-.5.6h-2.2" fill="#606a6a"/><path d="M143.9,120.6l.5-.6,2.1-.4-.6.6-2,.4" fill="#5d6767"/></g></g></g><polygon points="145.9 120.2 146.5 119.6 146.5 124.1 145.9 124.6 145.9 120.2" fill="#656f6f"/><polygon points="131.3 105.4 131.9 104.8 134.3 104.8 133.8 105.4 131.3 105.4" fill="#616b6b"/><polygon points="138.3 109.6 138.9 109.1 138.9 116.8 138.3 117.3 138.3 109.6" fill="#656f6f"/><polygon points="138.3 105.4 138.9 104.8 145.6 104.8 145.1 105.4 138.3 105.4" fill="#616b6b"/><polygon points="145.1 105.4 145.6 104.8 145.6 109.1 145.1 109.6 145.1 105.4" fill="#656f6f"/><polygon points="138.3 79 138.9 78.5 138.9 104.8 138.3 105.4 138.3 79" fill="#656f6f"/><g style="isolation:isolate"><g clip-path="url(#clip-path-10)"><g style="isolation:isolate"><path d="M139.1,76.4l.5-.6-.4.5-.5.6a1,1,0,0,1,.4-.5" fill="#596363"/><path d="M138.7,76.9l.5-.6c0,.2-.1.3-.1.5l-.6.5.2-.4" fill="#5d6767"/><path d="M138.5,77.3l.6-.5c-.1.1-.1.3-.2.5l-.5.5c0-.2.1-.3.1-.5" fill="#606a6a"/><path d="M138.4,77.8l.5-.5v.9l-.6.6c0-.4.1-.7.1-1" fill="#646e6e"/><path d="M138.3,78.8l.6-.6v.3l-.6.5v-.2" fill="#677272"/></g></g></g><g style="isolation:isolate"><g clip-path="url(#clip-path-11)"><g style="isolation:isolate"><path d="M135.5,72.8l.5-.6a4.3,4.3,0,0,1,2-1.1l-.5.5a4.8,4.8,0,0,0-2,1.2" fill="#596363"/><path d="M137.5,71.6l.5-.5,1.3-.4-.5.6-1.3.3" fill="#5d6767"/><path d="M138.8,71.3l.5-.6h1.8l-.5.6h-1.8" fill="#606a6a"/><path d="M140.6,71.2l.5-.6h.1l-.6.6h0" fill="#646e6e"/></g></g></g><polygon points="145.9 71.8 146.5 71.2 146.5 75.7 145.9 76.2 145.9 71.8" fill="#656f6f"/><g style="isolation:isolate"><g clip-path="url(#clip-path-12)"><g style="isolation:isolate"><path d="M140.6,71.2l.6-.6,3.1.2-.6.6a17.2,17.2,0,0,0-3.1-.2" fill="#646e6e"/><path d="M143.7,71.4l.6-.6,2.2.4-.6.6-2.2-.4" fill="#677272"/></g></g></g><path d="M140.6,71.2a22,22,0,0,1,5.3.6v4.4a20.8,20.8,0,0,0-4.2-.6c-2.9,0-3.4,1.4-3.4,3.4v26.4h6.8v4.2h-6.8v7.7c0,2.1.5,3.4,3.4,3.4a18.7,18.7,0,0,0,4.2-.5v4.4a28.5,28.5,0,0,1-5.2.6c-6.2,0-6.9-3.5-6.9-8.3v-7.3h-4.3l1.8-4.2h2.5V79.5C133.8,74.7,134.5,71.2,140.6,71.2Z" fill="#94a3a3"/></g><g style="isolation:isolate"><polygon points="162.9 105.4 163.4 104.8 165.8 104.8 165.2 105.4 162.9 105.4" fill="#616b6b"/><g style="isolation:isolate"><g clip-path="url(#clip-path-13)"><g style="isolation:isolate"><path d="M178.7,118.4l.5-.5c0,.8.1,1.6.1,2.2l-.5.5a14.1,14.1,0,0,1-.1-2.2" fill="#677272"/><path d="M178.8,120.6l.5-.5c.1.7.3,1.3.4,1.8l-.5.6a7.8,7.8,0,0,1-.4-1.9" fill="#6b7676"/><path d="M179.2,122.5l.5-.6a5.7,5.7,0,0,0,.6,1.5l-.5.5a6.4,6.4,0,0,1-.6-1.4" fill="#6e7a7a"/><path d="M179.8,123.9l.5-.5.6.7-.6.5a2.5,2.5,0,0,1-.5-.7" fill="#727d7d"/><path d="M180.3,124.6l.6-.5h0l-.5.6a.1.1,0,0,0-.1-.1" fill="#6e7a7a"/></g></g></g><polygon points="169.9 109.6 170.4 109.1 170.4 124.1 169.9 124.7 169.9 109.6" fill="#656f6f"/><g style="isolation:isolate"><g clip-path="url(#clip-path-14)"><g style="isolation:isolate"><path d="M169.9,105.4l.5-.6h1.1l-.6.6h-1" fill="#646e6e"/><path d="M170.9,105.4l.6-.6h.4l-.5.5h-.5" fill="#606a6a"/><path d="M171.4,105.3l.5-.5h.5l-.6.5h-.4" fill="#5d6767"/><path d="M171.8,105.2l.6-.5a1.6,1.6,0,0,0,.8-.6l-.5.6-.9.5" fill="#596363"/></g></g></g><polygon points="178.7 106.4 179.2 105.9 179.2 117.9 178.7 118.5 178.7 106.4" fill="#656f6f"/><polygon points="175.9 106.4 176.4 105.9 179.2 105.9 178.7 106.4 175.9 106.4" fill="#616b6b"/><g style="isolation:isolate"><g clip-path="url(#clip-path-15)"><g style="isolation:isolate"><path d="M178.7,97.7l.5-.6v1l-.5.5v-.9" fill="#677272"/><path d="M178.7,98.6l.5-.5a26.9,26.9,0,0,1-.2,3.1l-.6.5a25.1,25.1,0,0,0,.3-3.1" fill="#646e6e"/><path d="M178.4,101.7l.6-.5a15.5,15.5,0,0,1-.4,1.5l-.6.6a7.5,7.5,0,0,0,.4-1.6" fill="#606a6a"/><path d="M178,103.3l.6-.6a4.3,4.3,0,0,1-.5,1.2l-.5.5a3.6,3.6,0,0,0,.4-1.1" fill="#5d6767"/><path d="M177.6,104.4l.5-.5a7.1,7.1,0,0,1-1,1.4l-.6.6a5.8,5.8,0,0,0,1.1-1.5" fill="#596363"/></g></g></g><polygon points="157.7 76 158.2 75.5 158.3 124.1 157.7 124.7 157.7 76" fill="#656f6f"/><polygon points="161.5 71.6 161.5 76 157.7 76 157.7 124.7 153.2 124.7 153.2 76 148.2 76 150 71.6 161.5 71.6" fill="#94a3a3"/><polygon points="161.5 71.6 162 71.1 162 75.5 161.5 76 161.5 71.6" fill="#656f6f"/><polygon points="150 71.6 150.5 71.1 162 71.1 161.5 71.6 150 71.6" fill="#616b6b"/><polygon points="169.9 76 170.4 75.5 170.4 104.8 169.9 105.4 169.9 76" fill="#656f6f"/><polygon points="178.7 80.2 179.2 79.6 179.2 97.1 178.7 97.7 178.7 80.2" fill="#656f6f"/><polygon points="165.2 71.6 165.8 71.1 171.5 71.1 170.9 71.6 165.2 71.6" fill="#616b6b"/><g style="isolation:isolate"><g clip-path="url(#clip-path-16)"><g style="isolation:isolate"><path d="M170.9,71.6l.6-.5h2.4l-.5.6-2.5-.2" fill="#646e6e"/><path d="M173.4,71.8l.5-.6,1.3.3-.5.5-1.3-.2" fill="#677272"/><path d="M174.7,72l.5-.5,1,.4-.5.5-1-.4" fill="#6b7676"/><path d="M175.7,72.4l.5-.5a3.3,3.3,0,0,1,1,.6l-.6.5-.9-.6" fill="#6e7a7a"/><path d="M176.6,73l.6-.5.9,1-.6.6a3.1,3.1,0,0,0-.9-1.1" fill="#727d7d"/><path d="M177.5,74.1l.6-.6.6,1.5-.5.6a5.2,5.2,0,0,0-.7-1.5" fill="#6e7a7a"/><path d="M178.2,75.6l.5-.6a8,8,0,0,1,.4,1.8l-.6.5-.3-1.7" fill="#6b7676"/><path d="M178.5,77.3l.6-.5a24.4,24.4,0,0,1,.1,2.8l-.5.6a24.8,24.8,0,0,0-.2-2.9" fill="#677272"/></g></g></g><path d="M178.7,118.4c0,5,1.6,6.2,1.7,6.3h-4.5c-.1-.1-1.8-.6-1.8-6.3v-8.8h-4.2v15.1h-4.6V109.6h-4.2l1.8-4.2h2.3V71.6h5.7c6,0,7.8,1.9,7.8,8.6V97.7c0,4.8-.8,7.1-2.8,8.7h2.8Zm-4.6-20.3V78.8c0-2.3-.5-2.8-3-2.8h-1.2v29.4h1c2.3,0,3.2-2.4,3.2-7.3" fill="#94a3a3"/></g><g style="isolation:isolate"><g style="isolation:isolate"><g clip-path="url(#clip-path-17)"><g style="isolation:isolate"><path d="M187.4,118.5l.5-.5c0,.2.1.5.1.7l-.6.5v-.7" fill="#677272"/><path d="M187.4,119.2l.6-.5a.7.7,0,0,0,.1.5l-.5.6-.2-.6" fill="#6b7676"/><path d="M187.6,119.8l.5-.6c.1.2.1.4.2.5l-.5.6c-.1-.2-.2-.3-.2-.5" fill="#6e7a7a"/><path d="M187.8,120.3l.5-.6.3.4-.5.5-.3-.3" fill="#727d7d"/><path d="M188.1,120.6l.5-.5.3.2-.5.5-.3-.2" fill="#6e7a7a"/><path d="M188.4,120.8l.5-.5h.3l-.5.5h-.3" fill="#6b7676"/><path d="M188.7,120.9l.5-.5h.4l-.6.5h-.3" fill="#677272"/><path d="M189,121l.6-.5h.5l-.6.5H189" fill="#646e6e"/><path d="M189.5,121l.6-.5h.5l-.5.5h-.6" fill="#606a6a"/><path d="M190.1,121l.5-.5h.4l-.6.5h-.3" fill="#5d6767"/><path d="M190.4,120.9l.6-.5a1,1,0,0,0,.5-.4l-.5.6-.6.3" fill="#596363"/></g></g></g><g style="isolation:isolate"><g clip-path="url(#clip-path-18)"><g style="isolation:isolate"><path d="M196.2,118.1l.5-.5v.3l-.5.5v-.3" fill="#677272"/><path d="M196.2,118.4l.5-.5a8.1,8.1,0,0,1-.1,1.6l-.5.5c0-.5.1-1,.1-1.6" fill="#646e6e"/><path d="M196.1,120l.5-.5-.3,1.2-.5.5a10.4,10.4,0,0,0,.3-1.2" fill="#606a6a"/><path d="M195.8,121.2l.5-.5c-.1.4-.3.7-.4,1.1l-.6.5a11.7,11.7,0,0,0,.5-1.1" fill="#5d6767"/><path d="M195.3,122.3l.6-.5a6.4,6.4,0,0,1-1,1.3l-.5.5a6,6,0,0,0,.9-1.3" fill="#596363"/></g></g></g><polygon points="187.4 77.8 187.9 77.3 187.9 118 187.4 118.5 187.4 77.8" fill="#656f6f"/><g style="isolation:isolate"><g clip-path="url(#clip-path-19)"><g style="isolation:isolate"><path d="M188,75.8l.5-.6a.5.5,0,0,0-.2.4l-.6.5.3-.3" fill="#596363"/><path d="M187.7,76.1l.6-.5c-.1.1-.2.2-.2.3l-.5.6c0-.2.1-.3.1-.4" fill="#5d6767"/><path d="M187.6,76.5l.5-.6c0,.2-.1.3-.1.5l-.5.5a.6.6,0,0,1,.1-.4" fill="#606a6a"/><path d="M187.5,76.9l.5-.5c0,.2-.1.5-.1.7l-.5.6a2.2,2.2,0,0,1,.1-.8" fill="#646e6e"/><path d="M187.4,77.7l.5-.6v.2l-.5.5h0" fill="#677272"/></g></g></g><polygon points="196.2 78.2 196.7 77.6 196.7 117.6 196.2 118.1 196.2 78.2" fill="#656f6f"/><g style="isolation:isolate"><g clip-path="url(#clip-path-20)"><g style="isolation:isolate"><path d="M184.6,72.7l.6-.5a5.7,5.7,0,0,1,2.1-1.3l-.6.5a5.7,5.7,0,0,0-2.1,1.3" fill="#596363"/><path d="M186.7,71.4l.6-.5,1.2-.3-.5.5-1.3.3" fill="#5d6767"/><path d="M188,71.1l.5-.5h1.4l-.5.5H188" fill="#606a6a"/><path d="M189.4,71l.5-.5h.1l-.6.5h0" fill="#646e6e"/></g></g></g><path d="M189.4,71c3.2,0,6.8,1.4,6.8,7.2v39.9c0,5.9-3.6,7.2-6.7,7.2s-6.7-1.5-6.7-7.2V78.2C182.8,72.6,186,71,189.4,71Zm2.2,47.5V77.8c0-2-.8-2.5-2.1-2.5s-2.1.6-2.1,2.5v40.7c0,1.9.7,2.5,2.1,2.5s2.1-.5,2.1-2.5" fill="#94a3a3"/><g style="isolation:isolate"><g clip-path="url(#clip-path-21)"><g style="isolation:isolate"><path d="M189.4,71l.6-.5h1.3l-.5.5h-1.4" fill="#646e6e"/><path d="M190.8,71.1l.5-.5,1.2.2-.6.6-1.1-.3" fill="#677272"/><path d="M191.9,71.4l.6-.6,1,.4-.6.5-1-.3" fill="#6b7676"/><path d="M192.9,71.7l.6-.5a2.8,2.8,0,0,1,1.1.8l-.5.5-1.2-.8" fill="#6e7a7a"/><path d="M194.1,72.5l.5-.5a4.3,4.3,0,0,1,1.1,1.2l-.6.5a4,4,0,0,0-1-1.2" fill="#727d7d"/><path d="M195.1,73.7l.6-.5a5.2,5.2,0,0,1,.7,1.5l-.6.6a7.7,7.7,0,0,0-.7-1.6" fill="#6e7a7a"/><path d="M195.8,75.3l.6-.6a6.8,6.8,0,0,1,.2,1.5l-.5.5-.3-1.4" fill="#6b7676"/><path d="M196.1,76.7l.5-.5a6.1,6.1,0,0,1,.1,1.4l-.5.6a7.1,7.1,0,0,0-.1-1.5" fill="#677272"/></g></g></g></g></svg>