<svg id="Layer_1" data-name="Layer 1" xmlns="http://www.w3.org/2000/svg" xmlns:xlink="http://www.w3.org/1999/xlink" width="256" height="256" viewBox="0 0 256 256"><defs><clipPath id="clip-path"><path d="M90.7,158.5l.6-.5c0,2.1.5,3.4,3.3,3.4a20.7,20.7,0,0,0,4.3-.6l-.6.6a20.8,20.8,0,0,1-4.2.6C91.2,162,90.7,160.6,90.7,158.5Z" fill="none"/></clipPath><clipPath id="clip-path-2"><path d="M91.5,117.6l.5-.6a3.8,3.8,0,0,0-.8,2.7l-.5.5A3.5,3.5,0,0,1,91.5,117.6Z" fill="none"/></clipPath><clipPath id="clip-path-3"><path d="M87.9,114l.5-.6c1-1,2.7-1.6,5.2-1.6l-.6.6C90.5,112.4,88.9,113,87.9,114Z" fill="none"/></clipPath><clipPath id="clip-path-4"><path d="M93,112.4l.6-.6a27.6,27.6,0,0,1,5.2.6l-.5.6A28.6,28.6,0,0,0,93,112.4Z" fill="none"/></clipPath><clipPath id="clip-path-5"><path d="M127.5,159.7l.5-.6c0,5,1.7,6.2,1.7,6.2l-.5.6C129.1,165.8,127.5,164.6,127.5,159.7Z" fill="none"/></clipPath><clipPath id="clip-path-6"><path d="M122,145.3l-.5.6a2.7,2.7,0,0,1-1.8.7h-1l.5-.6h1.1A2.1,2.1,0,0,0,122,145.3Z" fill="none"/></clipPath><clipPath id="clip-path-7"><path d="M125.9,146.5l-.6.6c1.6-1.6,2.2-3.9,2.2-8.2l.5-.5C128,142.7,127.4,145,125.9,146.5Z" fill="none"/></clipPath><clipPath id="clip-path-8"><path d="M119.7,112.8l.6-.5c5.9,0,7.7,1.9,7.7,8.5l-.5.6C127.5,114.8,125.7,112.8,119.7,112.8Z" fill="none"/></clipPath><clipPath id="clip-path-9"><path d="M138.3,158.5l.6-.5c0,2.1.5,3.4,3.3,3.4a20.7,20.7,0,0,0,4.3-.6l-.6.6a19.9,19.9,0,0,1-4.2.6C138.8,162,138.3,160.6,138.3,158.5Z" fill="none"/></clipPath><clipPath id="clip-path-10"><path d="M139.1,117.6l.5-.6a3.8,3.8,0,0,0-.7,2.7l-.6.5A3.5,3.5,0,0,1,139.1,117.6Z" fill="none"/></clipPath><clipPath id="clip-path-11"><path d="M135.5,114l.5-.6c1.1-1,2.7-1.6,5.2-1.6l-.6.6C138.1,112.4,136.5,113,135.5,114Z" fill="none"/></clipPath><clipPath id="clip-path-12"><path d="M140.6,112.4l.6-.6a29.5,29.5,0,0,1,5.3.6l-.6.6A28.6,28.6,0,0,0,140.6,112.4Z" fill="none"/></clipPath><clipPath id="clip-path-13"><path d="M178.7,159.7l.5-.6c0,5,1.7,6.2,1.7,6.2l-.5.6C180.3,165.8,178.7,164.6,178.7,159.7Z" fill="none"/></clipPath><clipPath id="clip-path-14"><path d="M173.2,145.4l-.5.5a2.7,2.7,0,0,1-1.8.7h-1l.5-.6h1.1A2.4,2.4,0,0,0,173.2,145.4Z" fill="none"/></clipPath><clipPath id="clip-path-15"><path d="M177.1,146.5l-.6.6c1.6-1.6,2.2-3.9,2.2-8.2l.5-.5C179.2,142.7,178.6,145,177.1,146.5Z" fill="none"/></clipPath><clipPath id="clip-path-16"><path d="M170.9,112.8l.6-.5c5.9,0,7.7,1.9,7.7,8.5l-.5.6C178.7,114.8,176.9,112.8,170.9,112.8Z" fill="none"/></clipPath><clipPath id="clip-path-17"><path d="M191.5,161.2l-.5.6a2.1,2.1,0,0,1-1.5.4c-1.4,0-2.1-.5-2.1-2.5l.5-.5c0,1.9.8,2.5,2.2,2.5A1.6,1.6,0,0,0,191.5,161.2Z" fill="none"/></clipPath><clipPath id="clip-path-18"><path d="M194.9,164.3l-.5.5c1.1-1.1,1.8-2.8,1.8-5.5l.5-.5C196.7,161.5,196,163.2,194.9,164.3Z" fill="none"/></clipPath><clipPath id="clip-path-19"><path d="M188,117l.5-.6a2.9,2.9,0,0,0-.6,2.1l-.5.6A2.8,2.8,0,0,1,188,117Z" fill="none"/></clipPath><clipPath id="clip-path-20"><path d="M184.6,113.9l.6-.5a6.3,6.3,0,0,1,4.8-1.7l-.6.5A6.9,6.9,0,0,0,184.6,113.9Z" fill="none"/></clipPath><clipPath id="clip-path-21"><path d="M189.4,112.2l.6-.5c3.2,0,6.7,1.3,6.7,7.1l-.5.6C196.2,113.6,192.6,112.2,189.4,112.2Z" fill="none"/></clipPath></defs><title>logo-256</title><rect x="70.7" y="135.3" width="115.8" height="74.56" rx="1.4" ry="1.4" fill="#4f4947"/><rect x="77.3" y="152.7" width="102.5" height="49.87" rx="0.7" ry="0.7" fill="#acbebe"/><rect x="95.2" y="164.4" width="66.8" height="26.63" rx="1.2" ry="1.2" fill="#4f4947"/><path d="M164.6,147.4H91.9a2.4,2.4,0,0,1-2.3-1.9l-2.2-13.3a2.3,2.3,0,0,1,2.3-2.6h77.4a2.2,2.2,0,0,1,2.2,2.6l-2.5,13.3A2.2,2.2,0,0,1,164.6,147.4Z" fill="#3d3634"/><circle cx="109.1" cy="177.7" r="8.5" fill="#3d3634"/><circle cx="109.1" cy="177.7" r="5.9" fill="#fff"/><circle cx="148" cy="177.7" r="8.5" fill="#3d3634"/><circle cx="148" cy="177.7" r="5.9" fill="#fff"/><path d="M126.7,46.1A57.9,57.9,0,0,0,68.8,104h35.6a22.3,22.3,0,0,1,44.5,0h35.6A57.8,57.8,0,0,0,126.7,46.1Z" fill="#3d3735"/><path d="M126.7,100a3.9,3.9,0,0,1,3.9,4h18.3a22.3,22.3,0,0,0-44.5,0h18.3A4,4,0,0,1,126.7,100Z" fill="#acbebe"/><path d="M126.7,100.1a4,4,0,0,0-4,4h8A4,4,0,0,0,126.7,100.1Z" fill="#3d3735"/><path d="M126.7,102.4a1.6,1.6,0,0,0-1.6,1.5h3.1A1.5,1.5,0,0,0,126.7,102.4Z" fill="#fff"/><path d="M247.7,113.2a2.1,2.1,0,0,1,1.8,3.2L229,147.9a2,2,0,0,0,0,2.3l20.5,31.5a2.1,2.1,0,0,1-1.8,3.3h-51V113.2Z" fill="#47413f"/><path d="M60.1,113.2V185H8.3a2.1,2.1,0,0,1-1.8-3.3l20.6-31.5a2.4,2.4,0,0,0,0-2.3L6.5,116.4a2.1,2.1,0,0,1,1.8-3.2Z" fill="#47413f"/><rect x="47.5" y="104" width="162" height="71.82" fill="#4f4947"/><polyline points="196.7 175.8 209.4 175.8 196.8 185" fill="#3d3735"/><polyline points="60.1 175.8 47.5 175.8 60.1 185" fill="#3d3735"/><g style="isolation:isolate"><polygon points="62.6 117.2 63.1 116.7 63.1 165.3 62.6 165.9 62.6 117.2" fill="#656f6f"/><polygon points="66.4 112.8 66.4 117.2 62.6 117.2 62.6 165.9 58.1 165.9 58.1 117.2 53.1 117.2 54.9 112.8 66.4 112.8" fill="#94a3a3"/><polygon points="66.4 112.8 67 112.3 67 116.7 66.4 117.2 66.4 112.8" fill="#656f6f"/><polygon points="54.9 112.8 55.5 112.3 67 112.3 66.4 112.8 54.9 112.8" fill="#616b6b"/></g><g style="isolation:isolate"><polygon points="73.8 150.8 74.3 150.3 74.3 165.3 73.8 165.9 73.8 150.8" fill="#656f6f"/><polygon points="73.8 146.6 74.3 146 78.6 146 78 146.6 73.8 146.6" fill="#616b6b"/><polygon points="69.1 112.8 69.7 112.3 74.3 112.3 73.8 112.8 69.1 112.8" fill="#616b6b"/><polygon points="73.8 112.8 74.3 112.3 74.3 146 73.8 146.6 73.8 112.8" fill="#656f6f"/><polygon points="82.5 112.8 82.5 165.9 78 165.9 78 150.8 73.8 150.8 73.8 165.9 69.2 165.9 69.1 112.8 73.8 112.8 73.8 146.6 78 146.6 78 112.8 82.5 112.8" fill="#94a3a3"/><polygon points="82.5 112.8 83 112.3 83.1 165.3 82.5 165.9 82.5 112.8" fill="#656f6f"/><polygon points="78 112.8 78.5 112.3 83 112.3 82.5 112.8 78 112.8" fill="#616b6b"/></g><g style="isolation:isolate"><polygon points="98.3 161.4 98.9 160.8 98.9 165.3 98.3 165.8 98.3 161.4" fill="#656f6f"/><g style="isolation:isolate"><g clip-path="url(#clip-path)"><g style="isolation:isolate"><path d="M90.7,158.5l.6-.5v1l-.5.5a3.1,3.1,0,0,1-.1-1" fill="#677272"/><path d="M90.8,159.5l.5-.5c0,.2.1.4.1.7l-.5.5a1.5,1.5,0,0,1-.1-.7" fill="#6b7676"/><path d="M90.9,160.2l.5-.5.3.6-.5.5-.3-.6" fill="#6e7a7a"/><path d="M91.2,160.8l.5-.5.4.4-.5.6-.4-.5" fill="#727d7d"/><path d="M91.6,161.3l.5-.6a1,1,0,0,0,.5.4l-.5.5-.5-.3" fill="#6e7a7a"/><path d="M92.1,161.6l.5-.5h.5l-.6.6-.4-.2" fill="#6b7676"/><path d="M92.5,161.8l.6-.6.6.2-.6.5h-.6" fill="#677272"/><path d="M93.1,161.9l.6-.5h1l-.6.6h-1" fill="#646e6e"/><path d="M94.1,162l.6-.6a8.2,8.2,0,0,0,2.1-.2l-.5.6-2.2.2" fill="#606a6a"/><path d="M96.3,161.8l.5-.6,2.1-.4-.6.6-2,.4" fill="#5d6767"/></g></g></g><polygon points="90.7 150.8 91.3 150.3 91.3 158 90.7 158.5 90.7 150.8" fill="#656f6f"/><polygon points="90.7 146.6 91.3 146 98 146 97.5 146.6 90.7 146.6" fill="#616b6b"/><polygon points="97.5 146.6 98 146 98 150.3 97.5 150.8 97.5 146.6" fill="#656f6f"/><polygon points="90.7 120.2 91.2 119.7 91.3 146 90.7 146.6 90.7 120.2" fill="#656f6f"/><g style="isolation:isolate"><g clip-path="url(#clip-path-2)"><g style="isolation:isolate"><path d="M91.5,117.6l.5-.6-.4.5-.5.6a1,1,0,0,1,.4-.5" fill="#596363"/><path d="M91.1,118.1l.5-.6c0,.2-.1.3-.1.5l-.6.5c.1-.1.1-.3.2-.4" fill="#5d6767"/><path d="M90.9,118.5l.6-.5c-.1.1-.1.3-.2.5l-.5.6c0-.2.1-.4.1-.6" fill="#606a6a"/><path d="M90.8,119.1l.5-.6a2.8,2.8,0,0,1-.1.9l-.5.6a2.5,2.5,0,0,1,.1-.9" fill="#646e6e"/><path d="M90.7,120l.5-.6v.3l-.5.5V120" fill="#677272"/></g></g></g><g style="isolation:isolate"><g clip-path="url(#clip-path-3)"><g style="isolation:isolate"><path d="M87.9,114l.5-.6a4.3,4.3,0,0,1,2-1.1l-.6.5a5.2,5.2,0,0,0-1.9,1.2" fill="#596363"/><path d="M89.8,112.8l.6-.5a2.8,2.8,0,0,1,1.3-.3l-.5.5-1.4.3" fill="#5d6767"/><path d="M91.2,112.5l.5-.5,1.8-.2-.5.6H91.2" fill="#606a6a"/><path d="M93,112.4l.5-.6h.1l-.6.6h0" fill="#646e6e"/></g></g></g><polygon points="98.3 113 98.8 112.4 98.8 116.9 98.3 117.4 98.3 113" fill="#656f6f"/><g style="isolation:isolate"><g clip-path="url(#clip-path-4)"><g style="isolation:isolate"><path d="M93,112.4l.6-.6,3,.3-.5.5a17.2,17.2,0,0,0-3.1-.2" fill="#646e6e"/><path d="M96.1,112.6l.5-.5,2.2.3-.5.6-2.2-.4" fill="#677272"/></g></g></g><path d="M93,112.4a28.6,28.6,0,0,1,5.3.6v4.4a20.8,20.8,0,0,0-4.2-.6c-2.9,0-3.4,1.4-3.4,3.4v26.4h6.8v4.2H90.7v7.7c0,2.1.5,3.5,3.4,3.5a20.8,20.8,0,0,0,4.2-.6v4.4a28.5,28.5,0,0,1-5.2.6c-6.2,0-6.9-3.5-6.9-8.3V120.7C86.1,115.9,86.9,112.4,93,112.4Z" fill="#94a3a3"/></g><g style="isolation:isolate"><polygon points="111.7 146.6 112.2 146 114.6 146 114.1 146.6 111.7 146.6" fill="#616b6b"/><g style="isolation:isolate"><g clip-path="url(#clip-path-5)"><g style="isolation:isolate"><path d="M127.5,159.7l.5-.6a12.7,12.7,0,0,0,.2,2.2l-.6.6a15.5,15.5,0,0,1-.1-2.2" fill="#677272"/><path d="M127.6,161.9l.6-.6a7.4,7.4,0,0,0,.3,1.8l-.5.6a8,8,0,0,1-.4-1.8" fill="#6b7676"/><path d="M128,163.7l.5-.6a5.7,5.7,0,0,0,.6,1.5l-.5.6a11.6,11.6,0,0,1-.6-1.5" fill="#6e7a7a"/><path d="M128.6,165.2l.5-.6.6.7-.6.5-.5-.6" fill="#727d7d"/><path d="M129.1,165.8l.6-.5h0l-.5.6h-.1" fill="#6e7a7a"/></g></g></g><polygon points="118.7 150.8 119.2 150.3 119.2 165.3 118.7 165.9 118.7 150.8" fill="#656f6f"/><g style="isolation:isolate"><g clip-path="url(#clip-path-6)"><g style="isolation:isolate"><path d="M118.7,146.6l.5-.6h1.1l-.5.6h-1.1" fill="#646e6e"/><path d="M119.8,146.6l.5-.6h.4l-.5.5h-.4" fill="#606a6a"/><path d="M120.2,146.5l.5-.5h.5l-.6.5h-.4" fill="#5d6767"/><path d="M120.6,146.4l.6-.5a1.6,1.6,0,0,0,.8-.6l-.5.6a2.6,2.6,0,0,1-.9.5" fill="#596363"/></g></g></g><polygon points="124.7 147.6 125.2 147.1 128 147.1 127.5 147.6 124.7 147.6" fill="#616b6b"/><polygon points="127.5 147.6 128 147.1 128 159.1 127.5 159.7 127.5 147.6" fill="#656f6f"/><g style="isolation:isolate"><g clip-path="url(#clip-path-7)"><g style="isolation:isolate"><path d="M127.5,138.9l.5-.5v.9l-.5.6v-1" fill="#677272"/><path d="M127.5,139.9l.5-.6a26.9,26.9,0,0,1-.2,3.1l-.6.5a23.3,23.3,0,0,0,.3-3" fill="#646e6e"/><path d="M127.2,142.9l.6-.5c-.1.6-.3,1.1-.4,1.6l-.5.5.3-1.6" fill="#606a6a"/><path d="M126.9,144.5l.5-.5a3.7,3.7,0,0,1-.5,1.1l-.5.6.5-1.2" fill="#5d6767"/><path d="M126.4,145.7l.5-.6a5,5,0,0,1-1,1.4l-.6.6a7.6,7.6,0,0,0,1.1-1.4" fill="#596363"/></g></g></g><polygon points="118.7 117.2 119.2 116.7 119.2 146 118.7 146.6 118.7 117.2" fill="#656f6f"/><polygon points="127.5 121.4 128 120.8 128 138.4 127.5 138.9 127.5 121.4" fill="#656f6f"/><polygon points="114 112.8 114.6 112.3 120.3 112.3 119.7 112.8 114 112.8" fill="#616b6b"/><path d="M127.5,159.7c0,4.9,1.6,6.1,1.7,6.2h-4.5c-.1,0-1.8-.6-1.8-6.2v-8.9h-4.2v15.1h-4.6V150.8h-4.2l1.8-4.2h2.4V112.8h5.7c6,0,7.8,2,7.8,8.6v17.5c0,4.8-.7,7.1-2.8,8.7h2.8Zm-4.6-20.3V120.1c0-2.4-.5-2.9-3-2.9h-1.2v29.4h1c2.4,0,3.2-2.3,3.2-7.2" fill="#94a3a3"/><g style="isolation:isolate"><g clip-path="url(#clip-path-8)"><g style="isolation:isolate"><path d="M119.7,112.8l.6-.5h2.4l-.5.6-2.5-.2" fill="#646e6e"/><path d="M122.2,113l.5-.6,1.3.3-.5.6a5,5,0,0,0-1.3-.3" fill="#677272"/><path d="M123.5,113.3l.5-.6,1,.4-.5.5-1-.3" fill="#6b7676"/><path d="M124.5,113.6l.5-.5,1,.6-.5.6-1-.7" fill="#6e7a7a"/><path d="M125.5,114.3l.5-.6.9,1-.6.6a2.7,2.7,0,0,0-.8-1" fill="#727d7d"/><path d="M126.3,115.3l.6-.6.6,1.5-.5.6a5.2,5.2,0,0,0-.7-1.5" fill="#6e7a7a"/><path d="M127,116.8l.5-.6a11.6,11.6,0,0,1,.4,1.8l-.6.6q-.1-1-.3-1.8" fill="#6b7676"/><path d="M127.3,118.6l.6-.6a24.4,24.4,0,0,1,.1,2.8l-.5.6a21.6,21.6,0,0,0-.2-2.8" fill="#677272"/></g></g></g></g><g style="isolation:isolate"><g style="isolation:isolate"><g clip-path="url(#clip-path-9)"><g style="isolation:isolate"><path d="M138.3,158.5l.6-.5v1l-.5.5a3.1,3.1,0,0,1-.1-1" fill="#677272"/><path d="M138.4,159.5l.5-.5a6.4,6.4,0,0,1,.2.7l-.6.5c0-.2-.1-.4-.1-.7" fill="#6b7676"/><path d="M138.5,160.2l.6-.5a1.4,1.4,0,0,0,.2.6l-.5.5-.3-.6" fill="#6e7a7a"/><path d="M138.8,160.8l.5-.5.4.4-.5.6-.4-.5" fill="#727d7d"/><path d="M139.2,161.3l.5-.6.5.4-.5.5-.5-.3" fill="#6e7a7a"/><path d="M139.7,161.6l.5-.5h.5l-.6.6-.4-.2" fill="#6b7676"/><path d="M140.1,161.8l.6-.6.6.2-.5.5h-.7" fill="#677272"/><path d="M140.8,161.9l.5-.5h1l-.6.6h-.9" fill="#646e6e"/><path d="M141.7,162l.6-.6a8.2,8.2,0,0,0,2.1-.2l-.5.6-2.2.2" fill="#606a6a"/><path d="M143.9,161.8l.5-.6,2.1-.4-.6.6-2,.4" fill="#5d6767"/></g></g></g><polygon points="145.9 161.4 146.5 160.8 146.5 165.3 145.9 165.8 145.9 161.4" fill="#656f6f"/><polygon points="131.3 146.6 131.9 146 134.3 146 133.8 146.6 131.3 146.6" fill="#616b6b"/><polygon points="138.3 150.8 138.9 150.3 138.9 158 138.3 158.5 138.3 150.8" fill="#656f6f"/><polygon points="138.3 146.6 138.9 146 145.6 146 145.1 146.6 138.3 146.6" fill="#616b6b"/><polygon points="145.1 146.6 145.6 146 145.6 150.3 145.1 150.8 145.1 146.6" fill="#656f6f"/><polygon points="138.3 120.2 138.9 119.7 138.9 146 138.3 146.6 138.3 120.2" fill="#656f6f"/><g style="isolation:isolate"><g clip-path="url(#clip-path-10)"><g style="isolation:isolate"><path d="M139.1,117.6l.5-.6-.4.5-.5.6a1,1,0,0,1,.4-.5" fill="#596363"/><path d="M138.7,118.1l.5-.6c0,.2-.1.3-.1.5l-.6.5c.1-.1.1-.3.2-.4" fill="#5d6767"/><path d="M138.5,118.5l.6-.5c-.1.1-.1.3-.2.5l-.5.6c0-.2.1-.4.1-.6" fill="#606a6a"/><path d="M138.4,119.1l.5-.6v.9l-.6.6c0-.3.1-.7.1-.9" fill="#646e6e"/><path d="M138.3,120l.6-.6v.3l-.6.5V120" fill="#677272"/></g></g></g><g style="isolation:isolate"><g clip-path="url(#clip-path-11)"><g style="isolation:isolate"><path d="M135.5,114l.5-.6a4.3,4.3,0,0,1,2-1.1l-.5.5a4.8,4.8,0,0,0-2,1.2" fill="#596363"/><path d="M137.5,112.8l.5-.5a2.8,2.8,0,0,1,1.3-.3l-.5.5-1.3.3" fill="#5d6767"/><path d="M138.8,112.5l.5-.5,1.8-.2-.5.6h-1.8" fill="#606a6a"/><path d="M140.6,112.4l.5-.6h.1l-.6.6h0" fill="#646e6e"/></g></g></g><polygon points="145.9 113 146.5 112.4 146.5 116.9 145.9 117.4 145.9 113" fill="#656f6f"/><g style="isolation:isolate"><g clip-path="url(#clip-path-12)"><g style="isolation:isolate"><path d="M140.6,112.4l.6-.6,3.1.3-.6.5a17.2,17.2,0,0,0-3.1-.2" fill="#646e6e"/><path d="M143.7,112.6l.6-.5,2.2.3-.6.6-2.2-.4" fill="#677272"/></g></g></g><path d="M140.6,112.4a28.6,28.6,0,0,1,5.3.6v4.4a20.8,20.8,0,0,0-4.2-.6c-2.9,0-3.4,1.4-3.4,3.4v26.4h6.8v4.2h-6.8v7.7c0,2.1.5,3.5,3.4,3.5a19.9,19.9,0,0,0,4.2-.6v4.4a28.5,28.5,0,0,1-5.2.6c-6.2,0-6.9-3.5-6.9-8.3v-7.3h-4.3l1.8-4.2h2.5V120.7C133.8,115.9,134.5,112.4,140.6,112.4Z" fill="#94a3a3"/></g><g style="isolation:isolate"><polygon points="162.9 146.6 163.4 146 165.8 146 165.2 146.6 162.9 146.6" fill="#616b6b"/><g style="isolation:isolate"><g clip-path="url(#clip-path-13)"><g style="isolation:isolate"><path d="M178.7,159.7l.5-.6c0,.9.1,1.6.1,2.2l-.5.6a15.5,15.5,0,0,1-.1-2.2" fill="#677272"/><path d="M178.8,161.9l.5-.6a17.2,17.2,0,0,0,.4,1.8l-.5.6a8,8,0,0,1-.4-1.8" fill="#6b7676"/><path d="M179.2,163.7l.5-.6a5.7,5.7,0,0,0,.6,1.5l-.5.6a11.6,11.6,0,0,1-.6-1.5" fill="#6e7a7a"/><path d="M179.8,165.2l.5-.6.6.7-.6.5-.5-.6" fill="#727d7d"/><path d="M180.3,165.8l.6-.5h0l-.5.6h-.1" fill="#6e7a7a"/></g></g></g><polygon points="169.9 150.8 170.4 150.3 170.4 165.3 169.9 165.9 169.9 150.8" fill="#656f6f"/><g style="isolation:isolate"><g clip-path="url(#clip-path-14)"><g style="isolation:isolate"><path d="M169.9,146.6l.5-.6h1.1l-.6.6h-1" fill="#646e6e"/><path d="M170.9,146.6l.6-.6h.4l-.5.5h-.5" fill="#606a6a"/><path d="M171.4,146.5l.5-.5h.5l-.6.5h-.4" fill="#5d6767"/><path d="M171.8,146.4l.6-.5.8-.5-.5.5-.9.5" fill="#596363"/></g></g></g><polygon points="178.7 147.6 179.2 147.1 179.2 159.1 178.7 159.7 178.7 147.6" fill="#656f6f"/><polygon points="175.9 147.6 176.4 147.1 179.2 147.1 178.7 147.6 175.9 147.6" fill="#616b6b"/><g style="isolation:isolate"><g clip-path="url(#clip-path-15)"><g style="isolation:isolate"><path d="M178.7,138.9l.5-.5v.9l-.5.6v-1" fill="#677272"/><path d="M178.7,139.9l.5-.6a26.9,26.9,0,0,1-.2,3.1l-.6.5a23.3,23.3,0,0,0,.3-3" fill="#646e6e"/><path d="M178.4,142.9l.6-.5c-.1.6-.3,1.1-.4,1.6l-.6.5a7.5,7.5,0,0,0,.4-1.6" fill="#606a6a"/><path d="M178,144.5l.6-.5a3.7,3.7,0,0,1-.5,1.1l-.5.6a5.6,5.6,0,0,0,.4-1.2" fill="#5d6767"/><path d="M177.6,145.7l.5-.6a5,5,0,0,1-1,1.4l-.6.6a7.6,7.6,0,0,0,1.1-1.4" fill="#596363"/></g></g></g><polygon points="157.7 117.2 158.2 116.7 158.3 165.3 157.7 165.9 157.7 117.2" fill="#656f6f"/><polygon points="161.5 112.8 161.5 117.2 157.7 117.2 157.7 165.9 153.2 165.9 153.2 117.2 148.2 117.2 150 112.8 161.5 112.8" fill="#94a3a3"/><polygon points="161.5 112.8 162 112.3 162 116.7 161.5 117.2 161.5 112.8" fill="#656f6f"/><polygon points="150 112.8 150.5 112.3 162 112.3 161.5 112.8 150 112.8" fill="#616b6b"/><polygon points="169.9 117.2 170.4 116.7 170.4 146 169.9 146.6 169.9 117.2" fill="#656f6f"/><polygon points="178.7 121.4 179.2 120.8 179.2 138.4 178.7 138.9 178.7 121.4" fill="#656f6f"/><polygon points="165.2 112.8 165.8 112.3 171.5 112.3 170.9 112.8 165.2 112.8" fill="#616b6b"/><g style="isolation:isolate"><g clip-path="url(#clip-path-16)"><g style="isolation:isolate"><path d="M170.9,112.8l.6-.5h2.4l-.5.6-2.5-.2" fill="#646e6e"/><path d="M173.4,113l.5-.6,1.3.3-.5.6a6.1,6.1,0,0,0-1.3-.3" fill="#677272"/><path d="M174.7,113.3l.5-.6,1,.4-.5.5-1-.3" fill="#6b7676"/><path d="M175.7,113.6l.5-.5,1,.6-.6.6a3.1,3.1,0,0,0-.9-.7" fill="#6e7a7a"/><path d="M176.6,114.3l.6-.6.9,1.1-.6.5a2.8,2.8,0,0,0-.9-1" fill="#727d7d"/><path d="M177.5,115.3l.6-.5.6,1.4-.5.6a5.2,5.2,0,0,0-.7-1.5" fill="#6e7a7a"/><path d="M178.2,116.8l.5-.6a11.6,11.6,0,0,1,.4,1.8l-.6.6q-.1-1-.3-1.8" fill="#6b7676"/><path d="M178.5,118.6l.6-.6a24.4,24.4,0,0,1,.1,2.8l-.5.6a21.6,21.6,0,0,0-.2-2.8" fill="#677272"/></g></g></g><path d="M178.7,159.7c0,4.9,1.6,6.1,1.7,6.2h-4.5c-.1,0-1.8-.6-1.8-6.2v-8.9h-4.2v15.1h-4.6V150.8h-4.2l1.8-4.2h2.3V112.8h5.7c6,0,7.8,2,7.8,8.6v17.5c0,4.8-.8,7.1-2.8,8.7h2.8Zm-4.6-20.3V120.1c0-2.4-.5-2.9-3-2.9h-1.2v29.4h1c2.3,0,3.2-2.3,3.2-7.2" fill="#94a3a3"/></g><g style="isolation:isolate"><g style="isolation:isolate"><g clip-path="url(#clip-path-17)"><g style="isolation:isolate"><path d="M187.4,159.7l.5-.5c0,.3.1.5.1.7l-.6.5v-.7" fill="#677272"/><path d="M187.4,160.4l.6-.5a.7.7,0,0,0,.1.5l-.5.6c-.1-.2-.1-.4-.2-.6" fill="#6b7676"/><path d="M187.6,161l.5-.6c.1.2.1.4.2.5l-.5.6c-.1-.2-.2-.3-.2-.5" fill="#6e7a7a"/><path d="M187.8,161.5l.5-.6.3.4-.5.5-.3-.3" fill="#727d7d"/><path d="M188.1,161.8l.5-.5.3.2-.5.5-.3-.2" fill="#6e7a7a"/><path d="M188.4,162l.5-.5h.3l-.5.5h-.3" fill="#6b7676"/><path d="M188.7,162.1l.5-.5h.4l-.6.5h-.3" fill="#677272"/><path d="M189,162.2l.6-.5h.5l-.6.5H189" fill="#646e6e"/><path d="M189.5,162.2l.6-.5h.5l-.5.5h-.6" fill="#606a6a"/><path d="M190.1,162.2l.5-.5h.4l-.6.5h-.3" fill="#5d6767"/><path d="M190.4,162.1l.6-.5a1,1,0,0,0,.5-.4l-.5.6-.6.3" fill="#596363"/></g></g></g><g style="isolation:isolate"><g clip-path="url(#clip-path-18)"><g style="isolation:isolate"><path d="M196.2,159.3l.5-.5v.3l-.5.6v-.4" fill="#677272"/><path d="M196.2,159.7l.5-.6a8.1,8.1,0,0,1-.1,1.6l-.5.6c0-.5.1-1.1.1-1.6" fill="#646e6e"/><path d="M196.1,161.3l.5-.6-.3,1.2-.5.6.3-1.2" fill="#606a6a"/><path d="M195.8,162.5l.5-.6c-.1.4-.3.8-.4,1.1l-.6.5c.2-.3.3-.7.5-1" fill="#5d6767"/><path d="M195.3,163.5l.6-.5a6.4,6.4,0,0,1-1,1.3l-.5.5a4.3,4.3,0,0,0,.9-1.3" fill="#596363"/></g></g></g><polygon points="187.4 119.1 187.9 118.5 187.9 159.2 187.4 159.7 187.4 119.1" fill="#656f6f"/><g style="isolation:isolate"><g clip-path="url(#clip-path-19)"><g style="isolation:isolate"><path d="M188,117l.5-.6-.2.4-.6.5.3-.3" fill="#596363"/><path d="M187.7,117.3l.6-.5-.2.3-.5.6c0-.1.1-.3.1-.4" fill="#5d6767"/><path d="M187.6,117.7l.5-.6c0,.2-.1.3-.1.5l-.5.5a.6.6,0,0,1,.1-.4" fill="#606a6a"/><path d="M187.5,118.1l.5-.5c0,.2-.1.5-.1.7l-.5.6a2.2,2.2,0,0,1,.1-.8" fill="#646e6e"/><path d="M187.4,118.9l.5-.6v.2l-.5.6v-.2" fill="#677272"/></g></g></g><polygon points="196.2 119.4 196.7 118.8 196.7 158.8 196.2 159.3 196.2 119.4" fill="#656f6f"/><g style="isolation:isolate"><g clip-path="url(#clip-path-20)"><g style="isolation:isolate"><path d="M184.6,113.9l.6-.5a5.7,5.7,0,0,1,2.1-1.3l-.6.5a5.7,5.7,0,0,0-2.1,1.3" fill="#596363"/><path d="M186.7,112.6l.6-.5,1.2-.3-.5.6-1.3.2" fill="#5d6767"/><path d="M188,112.4l.5-.6h1.4l-.5.5-1.4.2" fill="#606a6a"/><path d="M189.4,112.2l.5-.5h.1l-.6.5h0" fill="#646e6e"/></g></g></g><path d="M189.4,112.2c3.2,0,6.8,1.4,6.8,7.2v39.9c0,5.9-3.6,7.2-6.7,7.2s-6.7-1.5-6.7-7.2V119.4C182.8,113.8,186,112.2,189.4,112.2Zm2.2,47.5V119.1c0-2.1-.8-2.6-2.1-2.6s-2.1.6-2.1,2.6v40.6c0,2,.7,2.5,2.1,2.5s2.1-.5,2.1-2.5" fill="#94a3a3"/><g style="isolation:isolate"><g clip-path="url(#clip-path-21)"><g style="isolation:isolate"><path d="M189.4,112.2l.6-.5h1.3l-.5.5h-1.4" fill="#646e6e"/><path d="M190.8,112.3l.5-.5,1.2.2-.6.6-1.1-.3" fill="#677272"/><path d="M191.9,112.6l.6-.6,1,.4-.6.5-1-.3" fill="#6b7676"/><path d="M192.9,112.9l.6-.5,1.1.8-.5.5-1.2-.8" fill="#6e7a7a"/><path d="M194.1,113.7l.5-.5a4.3,4.3,0,0,1,1.1,1.2l-.6.5-1-1.2" fill="#727d7d"/><path d="M195.1,114.9l.6-.5a6.9,6.9,0,0,1,.7,1.5l-.6.6a7.7,7.7,0,0,0-.7-1.6" fill="#6e7a7a"/><path d="M195.8,116.5l.6-.6a7.7,7.7,0,0,1,.2,1.5l-.5.5-.3-1.4" fill="#6b7676"/><path d="M196.1,117.9l.5-.5a6.1,6.1,0,0,1,.1,1.4l-.5.6a7.6,7.6,0,0,0-.1-1.5" fill="#677272"/></g></g></g></g></svg>