<svg xmlns="http://www.w3.org/2000/svg" width="256" height="171.1" viewBox="0 0 256 171.1"><defs><clipPath id="a"><path fill="none" d="M90.7 117.3l.6-.5c0 2.1.5 3.4 3.3 3.4a20.7 20.7 0 0 0 4.3-.6l-.6.6a19.3 19.3 0 0 1-4.2.5c-2.9 0-3.4-1.3-3.4-3.4z"/></clipPath><clipPath id="b"><path fill="none" d="M91.5 76.4l.5-.6a3.8 3.8 0 0 0-.8 2.7l-.5.5a3.5 3.5 0 0 1 .8-2.6z"/></clipPath><clipPath id="c"><path fill="none" d="M87.9 72.8l.5-.6c1-1 2.7-1.6 5.2-1.6l-.6.6c-2.5 0-4.1.5-5.1 1.6z"/></clipPath><clipPath id="d"><path fill="none" d="M93 71.2l.6-.6a27.6 27.6 0 0 1 5.2.6l-.5.6a22 22 0 0 0-5.3-.6z"/></clipPath><clipPath id="e"><path fill="none" d="M127.5 118.4l.5-.5c0 5 1.7 6.2 1.7 6.2l-.5.6c-.1-.1-1.7-1.3-1.7-6.3z"/></clipPath><clipPath id="f"><path fill="none" d="M122 104.1l-.5.6a2.7 2.7 0 0 1-1.8.7h-1l.5-.6h1.1a2.1 2.1 0 0 0 1.7-.7z"/></clipPath><clipPath id="g"><path fill="none" d="M125.9 105.3l-.6.6c1.6-1.6 2.2-3.9 2.2-8.2l.5-.6c0 4.3-.6 6.7-2.1 8.2z"/></clipPath><clipPath id="h"><path fill="none" d="M119.7 71.6l.6-.5c5.9 0 7.7 1.9 7.7 8.5l-.5.6c0-6.7-1.8-8.6-7.8-8.6z"/></clipPath><clipPath id="i"><path fill="none" d="M138.3 117.3l.6-.5c0 2.1.5 3.4 3.3 3.4a20.7 20.7 0 0 0 4.3-.6l-.6.6a18.7 18.7 0 0 1-4.2.5c-2.9 0-3.4-1.3-3.4-3.4z"/></clipPath><clipPath id="j"><path fill="none" d="M139.1 76.4l.5-.6a3.8 3.8 0 0 0-.7 2.7l-.6.5a3.5 3.5 0 0 1 .8-2.6z"/></clipPath><clipPath id="k"><path fill="none" d="M135.5 72.8l.5-.6c1.1-1 2.7-1.6 5.2-1.6l-.6.6c-2.5 0-4.1.5-5.1 1.6z"/></clipPath><clipPath id="l"><path fill="none" d="M140.6 71.2l.6-.6a29.5 29.5 0 0 1 5.3.6l-.6.6a22 22 0 0 0-5.3-.6z"/></clipPath><clipPath id="m"><path fill="none" d="M178.7 118.4l.5-.5c0 5 1.7 6.2 1.7 6.2l-.5.6c-.1-.1-1.7-1.3-1.7-6.3z"/></clipPath><clipPath id="n"><path fill="none" d="M173.2 104.1l-.5.6a2.7 2.7 0 0 1-1.8.7h-1l.5-.6h1.1a2.1 2.1 0 0 0 1.7-.7z"/></clipPath><clipPath id="o"><path fill="none" d="M177.1 105.3l-.6.6c1.6-1.6 2.2-3.9 2.2-8.2l.5-.6c0 4.3-.6 6.7-2.1 8.2z"/></clipPath><clipPath id="p"><path fill="none" d="M170.9 71.6l.6-.5c5.9 0 7.7 1.9 7.7 8.5l-.5.6c0-6.7-1.8-8.6-7.8-8.6z"/></clipPath><clipPath id="q"><path fill="none" d="M191.5 120l-.5.6a2.1 2.1 0 0 1-1.5.4c-1.4 0-2.1-.6-2.1-2.5l.5-.5c0 1.9.8 2.5 2.2 2.5a1.6 1.6 0 0 0 1.4-.5z"/></clipPath><clipPath id="r"><path fill="none" d="M194.9 123.1l-.5.5c1.1-1.1 1.8-2.8 1.8-5.5l.5-.5c0 2.6-.7 4.4-1.8 5.5z"/></clipPath><clipPath id="s"><path fill="none" d="M188 75.8l.5-.6a2.9 2.9 0 0 0-.6 2.1l-.5.5a2.5 2.5 0 0 1 .6-2z"/></clipPath><clipPath id="t"><path fill="none" d="M184.6 72.7l.6-.5a6.3 6.3 0 0 1 4.8-1.7l-.6.5a6.9 6.9 0 0 0-4.8 1.7z"/></clipPath><clipPath id="u"><path fill="none" d="M189.4 71l.6-.5c3.2 0 6.7 1.3 6.7 7.1l-.5.6c0-5.8-3.6-7.2-6.8-7.2z"/></clipPath></defs><rect width="115.8" height="74.56" x="70.7" y="94.1" fill="#4f4947" rx="1.4"/><rect width="102.5" height="49.87" x="77.3" y="111.5" fill="#acbebe" rx=".7"/><rect width="66.8" height="26.63" x="95.2" y="123.2" fill="#4f4947" rx="1.2"/><path fill="#3d3634" d="M164.6 106.2H91.9a2.4 2.4 0 0 1-2.3-1.9L87.4 91a2.4 2.4 0 0 1 2.3-2.7h77.4a2.2 2.2 0 0 1 2.2 2.7l-2.5 13.3a2.2 2.2 0 0 1-2.2 1.9z"/><circle cx="109.1" cy="136.5" r="8.5" fill="#3d3634"/><circle cx="109.1" cy="136.5" r="5.9" fill="#fff"/><circle cx="148" cy="136.5" r="8.5" fill="#3d3634"/><circle cx="148" cy="136.5" r="5.9" fill="#fff"/><path fill="#3d3735" d="M126.7 4.9a57.9 57.9 0 0 0-57.9 57.9h35.6a22.3 22.3 0 0 1 44.5 0h35.6a57.8 57.8 0 0 0-57.8-57.9z"/><path fill="#acbebe" d="M126.7 58.8a3.9 3.9 0 0 1 3.9 4h18.3a22.3 22.3 0 0 0-44.5 0h18.3a4 4 0 0 1 4-4z"/><path fill="#3d3735" d="M126.7 58.9a4 4 0 0 0-4 4h8a4 4 0 0 0-4-4z"/><path fill="#fff" d="M126.7 61.2a1.6 1.6 0 0 0-1.6 1.5h3.1a1.5 1.5 0 0 0-1.5-1.5z"/><path fill="#47413f" d="M247.7 71.9a2.1 2.1 0 0 1 1.8 3.3L229 106.7a2 2 0 0 0 0 2.3l20.5 31.5a2.1 2.1 0 0 1-1.8 3.3h-51V71.9zm-187.6 0v71.9H8.3a2.1 2.1 0 0 1-1.8-3.3L27.1 109a2.4 2.4 0 0 0 0-2.3L6.5 75.2a2.1 2.1 0 0 1 1.8-3.3z"/><path fill="#4f4947" d="M47.5 62.8h162v71.82h-162z"/><path fill="#3d3735" d="M196.7 134.6h12.7l-12.6 9.2m-136.7-9.2H47.5l12.6 9.2"/><g style="isolation:isolate"><path fill="#656f6f" d="M62.6 76l.5-.5v48.6l-.5.6V76z"/><path fill="#94a3a3" d="M66.4 71.6V76h-3.8v48.7h-4.5V76h-5l1.8-4.4h11.5z"/><path fill="#656f6f" d="M66.4 71.6l.6-.5v4.4l-.6.5v-4.4z"/><path fill="#616b6b" d="M54.9 71.6l.6-.5H67l-.6.5H54.9z"/></g><g style="isolation:isolate"><path fill="#656f6f" d="M73.8 109.6l.5-.5v15l-.5.6v-15.1z"/><path fill="#616b6b" d="M73.8 105.4l.5-.6h4.3l-.6.6h-4.2zm-4.7-33.8l.6-.5h4.6l-.5.5h-4.7z"/><path fill="#656f6f" d="M73.8 71.6l.5-.5v33.7l-.5.6V71.6z"/><path fill="#94a3a3" d="M82.5 71.6v53.1H78v-15.1h-4.2v15.1h-4.6l-.1-53.1h4.7v33.8H78V71.6h4.5z"/><path fill="#656f6f" d="M82.5 71.6l.5-.5.1 53-.6.6V71.6z"/><path fill="#616b6b" d="M78 71.6l.5-.5H83l-.5.5H78z"/></g><g style="isolation:isolate"><path fill="#656f6f" d="M98.3 120.2l.6-.6v4.5l-.6.5v-4.4z"/><g clip-path="url(#a)" style="isolation:isolate"><path fill="#677272" d="M90.7 117.3l.6-.5v1l-.5.5a3.1 3.1 0 0 1-.1-1"/><path fill="#6b7676" d="M90.8 118.3l.5-.5c0 .2.1.4.1.6l-.5.6a1.7 1.7 0 0 1-.1-.7"/><path fill="#6e7a7a" d="M90.9 119l.5-.6a1.6 1.6 0 0 0 .3.6l-.5.6-.3-.6"/><path fill="#727d7d" d="M91.2 119.6l.5-.6a1 1 0 0 0 .4.5l-.5.6-.4-.5"/><path fill="#6e7a7a" d="M91.6 120.1l.5-.6.5.3-.5.6-.5-.3"/><path fill="#6b7676" d="M92.1 120.4l.5-.6.5.2-.6.6-.4-.2"/><path fill="#677272" d="M92.5 120.6l.6-.6h.6l-.6.6h-.6"/><path fill="#646e6e" d="M93.1 120.7l.6-.6h1l-.6.5h-1"/><path fill="#606a6a" d="M94.1 120.7l.6-.5 2.1-.2-.5.6h-2.2"/><path fill="#5d6767" d="M96.3 120.6l.5-.6 2.1-.4-.6.6-2 .4"/></g><path fill="#656f6f" d="M90.7 109.6l.6-.5v7.7l-.6.5v-7.7z"/><path fill="#616b6b" d="M90.7 105.4l.6-.6H98l-.5.6h-6.8z"/><path fill="#656f6f" d="M97.5 105.4l.5-.6v4.3l-.5.5v-4.2zM90.7 79l.5-.5.1 26.3-.6.6V79z"/><g clip-path="url(#b)" style="isolation:isolate"><path fill="#596363" d="M91.5 76.4l.5-.6-.4.5-.5.6a1 1 0 0 1 .4-.5"/><path fill="#5d6767" d="M91.1 76.9l.5-.6c0 .2-.1.3-.1.5l-.6.5.2-.4"/><path fill="#606a6a" d="M90.9 77.3l.6-.5c-.1.1-.1.3-.2.5l-.5.5c0-.2.1-.3.1-.5"/><path fill="#646e6e" d="M90.8 77.8l.5-.5a2.8 2.8 0 0 1-.1.9l-.5.6a3.1 3.1 0 0 1 .1-1"/><path fill="#677272" d="M90.7 78.8l.5-.6v.3l-.5.5v-.2"/></g><g clip-path="url(#c)" style="isolation:isolate"><path fill="#596363" d="M87.9 72.8l.5-.6a4.3 4.3 0 0 1 2-1.1l-.6.5a5.2 5.2 0 0 0-1.9 1.2"/><path fill="#5d6767" d="M89.8 71.6l.6-.5 1.3-.4-.5.6-1.4.3"/><path fill="#606a6a" d="M91.2 71.3l.5-.6h1.8l-.5.6h-1.8"/><path fill="#646e6e" d="M93 71.2l.5-.6h.1l-.6.6"/></g><path fill="#656f6f" d="M98.3 71.8l.5-.6v4.5l-.5.5v-4.4z"/><g clip-path="url(#d)" style="isolation:isolate"><path fill="#646e6e" d="M93 71.2l.6-.6 3 .2-.5.6a17.2 17.2 0 0 0-3.1-.2"/><path fill="#677272" d="M96.1 71.4l.5-.6 2.2.4-.5.6-2.2-.4"/></g><path fill="#94a3a3" d="M93 71.2a22 22 0 0 1 5.3.6v4.4a20.8 20.8 0 0 0-4.2-.6c-2.9 0-3.4 1.4-3.4 3.4v26.4h6.8v4.2h-6.8v7.7c0 2.1.5 3.4 3.4 3.4a19.3 19.3 0 0 0 4.2-.5v4.4a28.5 28.5 0 0 1-5.2.6c-6.2 0-6.9-3.5-6.9-8.3V79.5c-.1-4.8.7-8.3 6.8-8.3z"/></g><g style="isolation:isolate"><path fill="#616b6b" d="M111.7 105.4l.5-.6h2.4l-.5.6h-2.4z"/><g clip-path="url(#e)" style="isolation:isolate"><path fill="#677272" d="M127.5 118.4l.5-.5a13.8 13.8 0 0 0 .2 2.2l-.6.5a14.1 14.1 0 0 1-.1-2.2"/><path fill="#6b7676" d="M127.6 120.6l.6-.5a8.4 8.4 0 0 0 .3 1.8l-.5.6a7.8 7.8 0 0 1-.4-1.9"/><path fill="#6e7a7a" d="M128 122.5l.5-.6a5.7 5.7 0 0 0 .6 1.5l-.5.5a6.4 6.4 0 0 1-.6-1.4"/><path fill="#727d7d" d="M128.6 123.9l.5-.5.6.7-.6.5a2.5 2.5 0 0 1-.5-.7"/><path fill="#6e7a7a" d="M129.1 124.6l.6-.5-.5.6a.1.1 0 0 0-.1-.1"/></g><path fill="#656f6f" d="M118.7 109.6l.5-.5v15l-.5.6v-15.1z"/><g clip-path="url(#f)" style="isolation:isolate"><path fill="#646e6e" d="M118.7 105.4l.5-.6h1.1l-.5.6h-1.1"/><path fill="#606a6a" d="M119.8 105.4l.5-.6h.4l-.5.5h-.4"/><path fill="#5d6767" d="M120.2 105.3l.5-.5h.5l-.6.5h-.4"/><path fill="#596363" d="M120.6 105.2l.6-.5a1.6 1.6 0 0 0 .8-.6l-.5.6a2.6 2.6 0 0 1-.9.5"/></g><path fill="#616b6b" d="M124.7 106.4l.5-.5h2.8l-.5.5h-2.8z"/><path fill="#656f6f" d="M127.5 106.4l.5-.5v12l-.5.6v-12.1z"/><g clip-path="url(#g)" style="isolation:isolate"><path fill="#677272" d="M127.5 97.7l.5-.6v1l-.5.5v-.9"/><path fill="#646e6e" d="M127.5 98.6l.5-.5a26.9 26.9 0 0 1-.2 3.1l-.6.5a25.1 25.1 0 0 0 .3-3.1"/><path fill="#606a6a" d="M127.2 101.7l.6-.5a15.5 15.5 0 0 1-.4 1.5l-.5.6.3-1.6"/><path fill="#5d6767" d="M126.9 103.3l.5-.6a4.3 4.3 0 0 1-.5 1.2l-.5.5a11.7 11.7 0 0 0 .5-1.1"/><path fill="#596363" d="M126.4 104.4l.5-.5a7.1 7.1 0 0 1-1 1.4l-.6.6a5.8 5.8 0 0 0 1.1-1.5"/></g><path fill="#656f6f" d="M118.7 76l.5-.5v29.3l-.5.6V76zm8.8 4.2l.5-.6v17.5l-.5.6V80.2z"/><path fill="#616b6b" d="M114 71.6l.6-.5h5.7l-.6.5H114z"/><path fill="#94a3a3" d="M127.5 118.4c0 5 1.6 6.2 1.7 6.3h-4.5c-.1-.1-1.8-.6-1.8-6.3v-8.8h-4.2v15.1h-4.6v-15.1h-4.2l1.8-4.2h2.4V71.6h5.7c6 0 7.8 1.9 7.8 8.6v17.5c0 4.8-.7 7.1-2.8 8.7h2.8zm-4.6-20.3V78.8c0-2.3-.5-2.8-3-2.8h-1.2v29.4h1c2.4 0 3.2-2.4 3.2-7.3"/><g clip-path="url(#h)" style="isolation:isolate"><path fill="#646e6e" d="M119.7 71.6l.6-.5h2.4l-.5.6-2.5-.2"/><path fill="#677272" d="M122.2 71.8l.5-.6 1.3.3-.5.5-1.3-.2"/><path fill="#6b7676" d="M123.5 72l.5-.5 1 .4-.5.5-1-.4"/><path fill="#6e7a7a" d="M124.5 72.4l.5-.5a3.3 3.3 0 0 1 1 .6l-.5.5-1-.6"/><path fill="#727d7d" d="M125.5 73l.5-.5.9 1-.6.6a4.4 4.4 0 0 0-.8-1.1"/><path fill="#6e7a7a" d="M126.3 74.1l.6-.6.6 1.5-.5.6a5.2 5.2 0 0 0-.7-1.5"/><path fill="#6b7676" d="M127 75.6l.5-.6a8 8 0 0 1 .4 1.8l-.6.5-.3-1.7"/><path fill="#677272" d="M127.3 77.3l.6-.5a24.4 24.4 0 0 1 .1 2.8l-.5.6a24.8 24.8 0 0 0-.2-2.9"/></g></g><g style="isolation:isolate"><g clip-path="url(#i)" style="isolation:isolate"><path fill="#677272" d="M138.3 117.3l.6-.5v1l-.5.5a3.1 3.1 0 0 1-.1-1"/><path fill="#6b7676" d="M138.4 118.3l.5-.5c.1.2.1.4.2.6l-.6.6c0-.2-.1-.5-.1-.7"/><path fill="#6e7a7a" d="M138.5 119l.6-.6a.8.8 0 0 0 .2.6l-.5.6-.3-.6"/><path fill="#727d7d" d="M138.8 119.6l.5-.6.4.5-.5.6-.4-.5"/><path fill="#6e7a7a" d="M139.2 120.1l.5-.6.5.3-.5.6-.5-.3"/><path fill="#6b7676" d="M139.7 120.4l.5-.6.5.2-.6.6-.4-.2"/><path fill="#677272" d="M140.1 120.6l.6-.6h.6l-.5.6h-.7"/><path fill="#646e6e" d="M140.8 120.7l.5-.6h1l-.6.5h-.9"/><path fill="#606a6a" d="M141.7 120.7l.6-.5 2.1-.2-.5.6h-2.2"/><path fill="#5d6767" d="M143.9 120.6l.5-.6 2.1-.4-.6.6-2 .4"/></g><path fill="#656f6f" d="M145.9 120.2l.6-.6v4.5l-.6.5v-4.4z"/><path fill="#616b6b" d="M131.3 105.4l.6-.6h2.4l-.5.6h-2.5z"/><path fill="#656f6f" d="M138.3 109.6l.6-.5v7.7l-.6.5v-7.7z"/><path fill="#616b6b" d="M138.3 105.4l.6-.6h6.7l-.5.6h-6.8z"/><path fill="#656f6f" d="M145.1 105.4l.5-.6v4.3l-.5.5v-4.2zM138.3 79l.6-.5v26.3l-.6.6V79z"/><g clip-path="url(#j)" style="isolation:isolate"><path fill="#596363" d="M139.1 76.4l.5-.6-.4.5-.5.6a1 1 0 0 1 .4-.5"/><path fill="#5d6767" d="M138.7 76.9l.5-.6c0 .2-.1.3-.1.5l-.6.5.2-.4"/><path fill="#606a6a" d="M138.5 77.3l.6-.5c-.1.1-.1.3-.2.5l-.5.5c0-.2.1-.3.1-.5"/><path fill="#646e6e" d="M138.4 77.8l.5-.5v.9l-.6.6c0-.4.1-.7.1-1"/><path fill="#677272" d="M138.3 78.8l.6-.6v.3l-.6.5v-.2"/></g><g clip-path="url(#k)" style="isolation:isolate"><path fill="#596363" d="M135.5 72.8l.5-.6a4.3 4.3 0 0 1 2-1.1l-.5.5a4.8 4.8 0 0 0-2 1.2"/><path fill="#5d6767" d="M137.5 71.6l.5-.5 1.3-.4-.5.6-1.3.3"/><path fill="#606a6a" d="M138.8 71.3l.5-.6h1.8l-.5.6h-1.8"/><path fill="#646e6e" d="M140.6 71.2l.5-.6h.1l-.6.6"/></g><path fill="#656f6f" d="M145.9 71.8l.6-.6v4.5l-.6.5v-4.4z"/><g clip-path="url(#l)" style="isolation:isolate"><path fill="#646e6e" d="M140.6 71.2l.6-.6 3.1.2-.6.6a17.2 17.2 0 0 0-3.1-.2"/><path fill="#677272" d="M143.7 71.4l.6-.6 2.2.4-.6.6-2.2-.4"/></g><path fill="#94a3a3" d="M140.6 71.2a22 22 0 0 1 5.3.6v4.4a20.8 20.8 0 0 0-4.2-.6c-2.9 0-3.4 1.4-3.4 3.4v26.4h6.8v4.2h-6.8v7.7c0 2.1.5 3.4 3.4 3.4a18.7 18.7 0 0 0 4.2-.5v4.4a28.5 28.5 0 0 1-5.2.6c-6.2 0-6.9-3.5-6.9-8.3v-7.3h-4.3l1.8-4.2h2.5V79.5c0-4.8.7-8.3 6.8-8.3z"/></g><g style="isolation:isolate"><path fill="#616b6b" d="M162.9 105.4l.5-.6h2.4l-.6.6h-2.3z"/><g clip-path="url(#m)" style="isolation:isolate"><path fill="#677272" d="M178.7 118.4l.5-.5c0 .8.1 1.6.1 2.2l-.5.5a14.1 14.1 0 0 1-.1-2.2"/><path fill="#6b7676" d="M178.8 120.6l.5-.5c.1.7.3 1.3.4 1.8l-.5.6a7.8 7.8 0 0 1-.4-1.9"/><path fill="#6e7a7a" d="M179.2 122.5l.5-.6a5.7 5.7 0 0 0 .6 1.5l-.5.5a6.4 6.4 0 0 1-.6-1.4"/><path fill="#727d7d" d="M179.8 123.9l.5-.5.6.7-.6.5a2.5 2.5 0 0 1-.5-.7"/><path fill="#6e7a7a" d="M180.3 124.6l.6-.5-.5.6a.1.1 0 0 0-.1-.1"/></g><path fill="#656f6f" d="M169.9 109.6l.5-.5v15l-.5.6v-15.1z"/><g clip-path="url(#n)" style="isolation:isolate"><path fill="#646e6e" d="M169.9 105.4l.5-.6h1.1l-.6.6h-1"/><path fill="#606a6a" d="M170.9 105.4l.6-.6h.4l-.5.5h-.5"/><path fill="#5d6767" d="M171.4 105.3l.5-.5h.5l-.6.5h-.4"/><path fill="#596363" d="M171.8 105.2l.6-.5a1.6 1.6 0 0 0 .8-.6l-.5.6-.9.5"/></g><path fill="#656f6f" d="M178.7 106.4l.5-.5v12l-.5.6v-12.1z"/><path fill="#616b6b" d="M175.9 106.4l.5-.5h2.8l-.5.5h-2.8z"/><g clip-path="url(#o)" style="isolation:isolate"><path fill="#677272" d="M178.7 97.7l.5-.6v1l-.5.5v-.9"/><path fill="#646e6e" d="M178.7 98.6l.5-.5a26.9 26.9 0 0 1-.2 3.1l-.6.5a25.1 25.1 0 0 0 .3-3.1"/><path fill="#606a6a" d="M178.4 101.7l.6-.5a15.5 15.5 0 0 1-.4 1.5l-.6.6a7.5 7.5 0 0 0 .4-1.6"/><path fill="#5d6767" d="M178 103.3l.6-.6a4.3 4.3 0 0 1-.5 1.2l-.5.5a3.6 3.6 0 0 0 .4-1.1"/><path fill="#596363" d="M177.6 104.4l.5-.5a7.1 7.1 0 0 1-1 1.4l-.6.6a5.8 5.8 0 0 0 1.1-1.5"/></g><path fill="#656f6f" d="M157.7 76l.5-.5.1 48.6-.6.6V76z"/><path fill="#94a3a3" d="M161.5 71.6V76h-3.8v48.7h-4.5V76h-5l1.8-4.4h11.5z"/><path fill="#656f6f" d="M161.5 71.6l.5-.5v4.4l-.5.5v-4.4z"/><path fill="#616b6b" d="M150 71.6l.5-.5H162l-.5.5H150z"/><path fill="#656f6f" d="M169.9 76l.5-.5v29.3l-.5.6V76zm8.8 4.2l.5-.6v17.5l-.5.6V80.2z"/><path fill="#616b6b" d="M165.2 71.6l.6-.5h5.7l-.6.5h-5.7z"/><g clip-path="url(#p)" style="isolation:isolate"><path fill="#646e6e" d="M170.9 71.6l.6-.5h2.4l-.5.6-2.5-.2"/><path fill="#677272" d="M173.4 71.8l.5-.6 1.3.3-.5.5-1.3-.2"/><path fill="#6b7676" d="M174.7 72l.5-.5 1 .4-.5.5-1-.4"/><path fill="#6e7a7a" d="M175.7 72.4l.5-.5a3.3 3.3 0 0 1 1 .6l-.6.5-.9-.6"/><path fill="#727d7d" d="M176.6 73l.6-.5.9 1-.6.6a3.1 3.1 0 0 0-.9-1.1"/><path fill="#6e7a7a" d="M177.5 74.1l.6-.6.6 1.5-.5.6a5.2 5.2 0 0 0-.7-1.5"/><path fill="#6b7676" d="M178.2 75.6l.5-.6a8 8 0 0 1 .4 1.8l-.6.5-.3-1.7"/><path fill="#677272" d="M178.5 77.3l.6-.5a24.4 24.4 0 0 1 .1 2.8l-.5.6a24.8 24.8 0 0 0-.2-2.9"/></g><path fill="#94a3a3" d="M178.7 118.4c0 5 1.6 6.2 1.7 6.3h-4.5c-.1-.1-1.8-.6-1.8-6.3v-8.8h-4.2v15.1h-4.6v-15.1h-4.2l1.8-4.2h2.3V71.6h5.7c6 0 7.8 1.9 7.8 8.6v17.5c0 4.8-.8 7.1-2.8 8.7h2.8zm-4.6-20.3V78.8c0-2.3-.5-2.8-3-2.8h-1.2v29.4h1c2.3 0 3.2-2.4 3.2-7.3"/></g><g style="isolation:isolate"><g clip-path="url(#q)" style="isolation:isolate"><path fill="#677272" d="M187.4 118.5l.5-.5c0 .2.1.5.1.7l-.6.5v-.7"/><path fill="#6b7676" d="M187.4 119.2l.6-.5a.7.7 0 0 0 .1.5l-.5.6-.2-.6"/><path fill="#6e7a7a" d="M187.6 119.8l.5-.6c.1.2.1.4.2.5l-.5.6c-.1-.2-.2-.3-.2-.5"/><path fill="#727d7d" d="M187.8 120.3l.5-.6.3.4-.5.5-.3-.3"/><path fill="#6e7a7a" d="M188.1 120.6l.5-.5.3.2-.5.5-.3-.2"/><path fill="#6b7676" d="M188.4 120.8l.5-.5h.3l-.5.5h-.3"/><path fill="#677272" d="M188.7 120.9l.5-.5h.4l-.6.5h-.3"/><path fill="#646e6e" d="M189 121l.6-.5h.5l-.6.5h-.5"/><path fill="#606a6a" d="M189.5 121l.6-.5h.5l-.5.5h-.6"/><path fill="#5d6767" d="M190.1 121l.5-.5h.4l-.6.5h-.3"/><path fill="#596363" d="M190.4 120.9l.6-.5a1 1 0 0 0 .5-.4l-.5.6-.6.3"/></g><g clip-path="url(#r)" style="isolation:isolate"><path fill="#677272" d="M196.2 118.1l.5-.5v.3l-.5.5v-.3"/><path fill="#646e6e" d="M196.2 118.4l.5-.5a8.1 8.1 0 0 1-.1 1.6l-.5.5c0-.5.1-1 .1-1.6"/><path fill="#606a6a" d="M196.1 120l.5-.5-.3 1.2-.5.5a10.4 10.4 0 0 0 .3-1.2"/><path fill="#5d6767" d="M195.8 121.2l.5-.5c-.1.4-.3.7-.4 1.1l-.6.5a11.7 11.7 0 0 0 .5-1.1"/><path fill="#596363" d="M195.3 122.3l.6-.5a6.4 6.4 0 0 1-1 1.3l-.5.5a6 6 0 0 0 .9-1.3"/></g><path fill="#656f6f" d="M187.4 77.8l.5-.5V118l-.5.5V77.8z"/><g clip-path="url(#s)" style="isolation:isolate"><path fill="#596363" d="M188 75.8l.5-.6a.5.5 0 0 0-.2.4l-.6.5.3-.3"/><path fill="#5d6767" d="M187.7 76.1l.6-.5c-.1.1-.2.2-.2.3l-.5.6c0-.2.1-.3.1-.4"/><path fill="#606a6a" d="M187.6 76.5l.5-.6c0 .2-.1.3-.1.5l-.5.5a.6.6 0 0 1 .1-.4"/><path fill="#646e6e" d="M187.5 76.9l.5-.5c0 .2-.1.5-.1.7l-.5.6a2.2 2.2 0 0 1 .1-.8"/><path fill="#677272" d="M187.4 77.7l.5-.6v.2l-.5.5"/></g><path fill="#656f6f" d="M196.2 78.2l.5-.6v40l-.5.5V78.2z"/><g clip-path="url(#t)" style="isolation:isolate"><path fill="#596363" d="M184.6 72.7l.6-.5a5.7 5.7 0 0 1 2.1-1.3l-.6.5a5.7 5.7 0 0 0-2.1 1.3"/><path fill="#5d6767" d="M186.7 71.4l.6-.5 1.2-.3-.5.5-1.3.3"/><path fill="#606a6a" d="M188 71.1l.5-.5h1.4l-.5.5H188"/><path fill="#646e6e" d="M189.4 71l.5-.5h.1l-.6.5"/></g><path fill="#94a3a3" d="M189.4 71c3.2 0 6.8 1.4 6.8 7.2v39.9c0 5.9-3.6 7.2-6.7 7.2s-6.7-1.5-6.7-7.2V78.2c0-5.6 3.2-7.2 6.6-7.2zm2.2 47.5V77.8c0-2-.8-2.5-2.1-2.5s-2.1.6-2.1 2.5v40.7c0 1.9.7 2.5 2.1 2.5s2.1-.5 2.1-2.5"/><g clip-path="url(#u)" style="isolation:isolate"><path fill="#646e6e" d="M189.4 71l.6-.5h1.3l-.5.5h-1.4"/><path fill="#677272" d="M190.8 71.1l.5-.5 1.2.2-.6.6-1.1-.3"/><path fill="#6b7676" d="M191.9 71.4l.6-.6 1 .4-.6.5-1-.3"/><path fill="#6e7a7a" d="M192.9 71.7l.6-.5a2.8 2.8 0 0 1 1.1.8l-.5.5-1.2-.8"/><path fill="#727d7d" d="M194.1 72.5l.5-.5a4.3 4.3 0 0 1 1.1 1.2l-.6.5a4 4 0 0 0-1-1.2"/><path fill="#6e7a7a" d="M195.1 73.7l.6-.5a5.2 5.2 0 0 1 .7 1.5l-.6.6a7.7 7.7 0 0 0-.7-1.6"/><path fill="#6b7676" d="M195.8 75.3l.6-.6a6.8 6.8 0 0 1 .2 1.5l-.5.5-.3-1.4"/><path fill="#677272" d="M196.1 76.7l.5-.5a6.1 6.1 0 0 1 .1 1.4l-.5.6a7.1 7.1 0 0 0-.1-1.5"/></g></g></svg>