<svg xmlns="http://www.w3.org/2000/svg"><symbol id="logo-32" viewBox="0 0 32 32"><circle cx="16" cy="16" r="14.9" fill="#3d3735"/><circle cx="16" cy="16" r="5.7" fill="#acbebe"/><circle cx="16" cy="16" r="1"/><circle cx="16" cy="16" r=".4" fill="#fff"/></symbol><symbol id="logo-64" viewBox="0 0 64 64"><circle cx="32" cy="32" r="30.5" fill="#3d3735"/><circle cx="32" cy="32" r="11.7" fill="#acbebe"/><circle cx="32" cy="32" r="2.1"/><circle cx="32" cy="31.9" r=".8" fill="#fff"/></symbol><symbol id="logo-16" viewBox="0 0 16 16"><circle cx="8" cy="8" r="7.6" fill="#3d3735"/><circle cx="8" cy="8" r="2.9" fill="#acbebe"/><circle cx="8" cy="8" r=".5"/><circle cx="8" cy="8" r=".2" fill="#fff"/></symbol><symbol id="logo-256" viewBox="0 0 256 256"><defs><clipPath id="a"><path fill="none" d="M90.7 158.5l.6-.5c0 2.1.5 3.4 3.3 3.4a20.7 20.7 0 0 0 4.3-.6l-.6.6a20.8 20.8 0 0 1-4.2.6c-2.9 0-3.4-1.4-3.4-3.5z"/></clipPath><clipPath id="b"><path fill="none" d="M91.5 117.6l.5-.6a3.8 3.8 0 0 0-.8 2.7l-.5.5a3.5 3.5 0 0 1 .8-2.6z"/></clipPath><clipPath id="c"><path fill="none" d="M87.9 114l.5-.6c1-1 2.7-1.6 5.2-1.6l-.6.6c-2.5 0-4.1.6-5.1 1.6z"/></clipPath><clipPath id="d"><path fill="none" d="M93 112.4l.6-.6a27.6 27.6 0 0 1 5.2.6l-.5.6a28.6 28.6 0 0 0-5.3-.6z"/></clipPath><clipPath id="e"><path fill="none" d="M127.5 159.7l.5-.6c0 5 1.7 6.2 1.7 6.2l-.5.6c-.1-.1-1.7-1.3-1.7-6.2z"/></clipPath><clipPath id="f"><path fill="none" d="M122 145.3l-.5.6a2.7 2.7 0 0 1-1.8.7h-1l.5-.6h1.1a2.1 2.1 0 0 0 1.7-.7z"/></clipPath><clipPath id="g"><path fill="none" d="M125.9 146.5l-.6.6c1.6-1.6 2.2-3.9 2.2-8.2l.5-.5c0 4.3-.6 6.6-2.1 8.1z"/></clipPath><clipPath id="h"><path fill="none" d="M119.7 112.8l.6-.5c5.9 0 7.7 1.9 7.7 8.5l-.5.6c0-6.6-1.8-8.6-7.8-8.6z"/></clipPath><clipPath id="i"><path fill="none" d="M138.3 158.5l.6-.5c0 2.1.5 3.4 3.3 3.4a20.7 20.7 0 0 0 4.3-.6l-.6.6a19.9 19.9 0 0 1-4.2.6c-2.9 0-3.4-1.4-3.4-3.5z"/></clipPath><clipPath id="j"><path fill="none" d="M139.1 117.6l.5-.6a3.8 3.8 0 0 0-.7 2.7l-.6.5a3.5 3.5 0 0 1 .8-2.6z"/></clipPath><clipPath id="k"><path fill="none" d="M135.5 114l.5-.6c1.1-1 2.7-1.6 5.2-1.6l-.6.6c-2.5 0-4.1.6-5.1 1.6z"/></clipPath><clipPath id="l"><path fill="none" d="M140.6 112.4l.6-.6a29.5 29.5 0 0 1 5.3.6l-.6.6a28.6 28.6 0 0 0-5.3-.6z"/></clipPath><clipPath id="m"><path fill="none" d="M178.7 159.7l.5-.6c0 5 1.7 6.2 1.7 6.2l-.5.6c-.1-.1-1.7-1.3-1.7-6.2z"/></clipPath><clipPath id="n"><path fill="none" d="M173.2 145.4l-.5.5a2.7 2.7 0 0 1-1.8.7h-1l.5-.6h1.1a2.4 2.4 0 0 0 1.7-.6z"/></clipPath><clipPath id="o"><path fill="none" d="M177.1 146.5l-.6.6c1.6-1.6 2.2-3.9 2.2-8.2l.5-.5c0 4.3-.6 6.6-2.1 8.1z"/></clipPath><clipPath id="p"><path fill="none" d="M170.9 112.8l.6-.5c5.9 0 7.7 1.9 7.7 8.5l-.5.6c0-6.6-1.8-8.6-7.8-8.6z"/></clipPath><clipPath id="q"><path fill="none" d="M191.5 161.2l-.5.6a2.1 2.1 0 0 1-1.5.4c-1.4 0-2.1-.5-2.1-2.5l.5-.5c0 1.9.8 2.5 2.2 2.5a1.6 1.6 0 0 0 1.4-.5z"/></clipPath><clipPath id="r"><path fill="none" d="M194.9 164.3l-.5.5c1.1-1.1 1.8-2.8 1.8-5.5l.5-.5c0 2.7-.7 4.4-1.8 5.5z"/></clipPath><clipPath id="s"><path fill="none" d="M188 117l.5-.6a2.9 2.9 0 0 0-.6 2.1l-.5.6a2.8 2.8 0 0 1 .6-2.1z"/></clipPath><clipPath id="t"><path fill="none" d="M184.6 113.9l.6-.5a6.3 6.3 0 0 1 4.8-1.7l-.6.5a6.9 6.9 0 0 0-4.8 1.7z"/></clipPath><clipPath id="u"><path fill="none" d="M189.4 112.2l.6-.5c3.2 0 6.7 1.3 6.7 7.1l-.5.6c0-5.8-3.6-7.2-6.8-7.2z"/></clipPath></defs><rect width="115.8" height="74.56" x="70.7" y="135.3" fill="#4f4947" rx="1.4" ry="1.4"/><rect width="102.5" height="49.87" x="77.3" y="152.7" fill="#acbebe" rx=".7" ry=".7"/><rect width="66.8" height="26.63" x="95.2" y="164.4" fill="#4f4947" rx="1.2" ry="1.2"/><path fill="#3d3634" d="M164.6 147.4H91.9a2.4 2.4 0 0 1-2.3-1.9l-2.2-13.3a2.3 2.3 0 0 1 2.3-2.6h77.4a2.2 2.2 0 0 1 2.2 2.6l-2.5 13.3a2.2 2.2 0 0 1-2.2 1.9z"/><circle cx="109.1" cy="177.7" r="8.5" fill="#3d3634"/><circle cx="109.1" cy="177.7" r="5.9" fill="#fff"/><circle cx="148" cy="177.7" r="8.5" fill="#3d3634"/><circle cx="148" cy="177.7" r="5.9" fill="#fff"/><path fill="#3d3735" d="M126.7 46.1A57.9 57.9 0 0 0 68.8 104h35.6a22.3 22.3 0 0 1 44.5 0h35.6a57.8 57.8 0 0 0-57.8-57.9z"/><path fill="#acbebe" d="M126.7 100a3.9 3.9 0 0 1 3.9 4h18.3a22.3 22.3 0 0 0-44.5 0h18.3a4 4 0 0 1 4-4z"/><path fill="#3d3735" d="M126.7 100.1a4 4 0 0 0-4 4h8a4 4 0 0 0-4-4z"/><path fill="#fff" d="M126.7 102.4a1.6 1.6 0 0 0-1.6 1.5h3.1a1.5 1.5 0 0 0-1.5-1.5z"/><path fill="#47413f" d="M247.7 113.2a2.1 2.1 0 0 1 1.8 3.2L229 147.9a2 2 0 0 0 0 2.3l20.5 31.5a2.1 2.1 0 0 1-1.8 3.3h-51v-71.8zm-187.6 0V185H8.3a2.1 2.1 0 0 1-1.8-3.3l20.6-31.5a2.4 2.4 0 0 0 0-2.3L6.5 116.4a2.1 2.1 0 0 1 1.8-3.2z"/><path fill="#4f4947" d="M47.5 104h162v71.82h-162z"/><path fill="#3d3735" d="M196.7 175.8h12.7l-12.6 9.2m-136.7-9.2H47.5l12.6 9.2"/><g style="isolation:isolate"><path fill="#656f6f" d="M62.6 117.2l.5-.5v48.6l-.5.6v-48.7z"/><path fill="#94a3a3" d="M66.4 112.8v4.4h-3.8v48.7h-4.5v-48.7h-5l1.8-4.4h11.5z"/><path fill="#656f6f" d="M66.4 112.8l.6-.5v4.4l-.6.5v-4.4z"/><path fill="#616b6b" d="M54.9 112.8l.6-.5H67l-.6.5H54.9z"/></g><g style="isolation:isolate"><path fill="#656f6f" d="M73.8 150.8l.5-.5v15l-.5.6v-15.1z"/><path fill="#616b6b" d="M73.8 146.6l.5-.6h4.3l-.6.6h-4.2zm-4.7-33.8l.6-.5h4.6l-.5.5h-4.7z"/><path fill="#656f6f" d="M73.8 112.8l.5-.5V146l-.5.6v-33.8z"/><path fill="#94a3a3" d="M82.5 112.8v53.1H78v-15.1h-4.2v15.1h-4.6l-.1-53.1h4.7v33.8H78v-33.8h4.5z"/><path fill="#656f6f" d="M82.5 112.8l.5-.5.1 53-.6.6v-53.1z"/><path fill="#616b6b" d="M78 112.8l.5-.5H83l-.5.5H78z"/></g><g style="isolation:isolate"><path fill="#656f6f" d="M98.3 161.4l.6-.6v4.5l-.6.5v-4.4z"/><g clip-path="url(#a)" style="isolation:isolate"><path fill="#677272" d="M90.7 158.5l.6-.5v1l-.5.5a3.1 3.1 0 0 1-.1-1"/><path fill="#6b7676" d="M90.8 159.5l.5-.5c0 .2.1.4.1.7l-.5.5a1.5 1.5 0 0 1-.1-.7"/><path fill="#6e7a7a" d="M90.9 160.2l.5-.5.3.6-.5.5-.3-.6"/><path fill="#727d7d" d="M91.2 160.8l.5-.5.4.4-.5.6-.4-.5"/><path fill="#6e7a7a" d="M91.6 161.3l.5-.6a1 1 0 0 0 .5.4l-.5.5-.5-.3"/><path fill="#6b7676" d="M92.1 161.6l.5-.5h.5l-.6.6-.4-.2"/><path fill="#677272" d="M92.5 161.8l.6-.6.6.2-.6.5h-.6"/><path fill="#646e6e" d="M93.1 161.9l.6-.5h1l-.6.6h-1"/><path fill="#606a6a" d="M94.1 162l.6-.6a8.2 8.2 0 0 0 2.1-.2l-.5.6-2.2.2"/><path fill="#5d6767" d="M96.3 161.8l.5-.6 2.1-.4-.6.6-2 .4"/></g><path fill="#656f6f" d="M90.7 150.8l.6-.5v7.7l-.6.5v-7.7z"/><path fill="#616b6b" d="M90.7 146.6l.6-.6H98l-.5.6h-6.8z"/><path fill="#656f6f" d="M97.5 146.6l.5-.6v4.3l-.5.5v-4.2zm-6.8-26.4l.5-.5.1 26.3-.6.6v-26.4z"/><g clip-path="url(#b)" style="isolation:isolate"><path fill="#596363" d="M91.5 117.6l.5-.6-.4.5-.5.6a1 1 0 0 1 .4-.5"/><path fill="#5d6767" d="M91.1 118.1l.5-.6c0 .2-.1.3-.1.5l-.6.5c.1-.1.1-.3.2-.4"/><path fill="#606a6a" d="M90.9 118.5l.6-.5c-.1.1-.1.3-.2.5l-.5.6c0-.2.1-.4.1-.6"/><path fill="#646e6e" d="M90.8 119.1l.5-.6a2.8 2.8 0 0 1-.1.9l-.5.6a2.5 2.5 0 0 1 .1-.9"/><path fill="#677272" d="M90.7 120l.5-.6v.3l-.5.5v-.2"/></g><g clip-path="url(#c)" style="isolation:isolate"><path fill="#596363" d="M87.9 114l.5-.6a4.3 4.3 0 0 1 2-1.1l-.6.5a5.2 5.2 0 0 0-1.9 1.2"/><path fill="#5d6767" d="M89.8 112.8l.6-.5a2.8 2.8 0 0 1 1.3-.3l-.5.5-1.4.3"/><path fill="#606a6a" d="M91.2 112.5l.5-.5 1.8-.2-.5.6h-1.8"/><path fill="#646e6e" d="M93 112.4l.5-.6h.1l-.6.6"/></g><path fill="#656f6f" d="M98.3 113l.5-.6v4.5l-.5.5V113z"/><g clip-path="url(#d)" style="isolation:isolate"><path fill="#646e6e" d="M93 112.4l.6-.6 3 .3-.5.5a17.2 17.2 0 0 0-3.1-.2"/><path fill="#677272" d="M96.1 112.6l.5-.5 2.2.3-.5.6-2.2-.4"/></g><path fill="#94a3a3" d="M93 112.4a28.6 28.6 0 0 1 5.3.6v4.4a20.8 20.8 0 0 0-4.2-.6c-2.9 0-3.4 1.4-3.4 3.4v26.4h6.8v4.2h-6.8v7.7c0 2.1.5 3.5 3.4 3.5a20.8 20.8 0 0 0 4.2-.6v4.4a28.5 28.5 0 0 1-5.2.6c-6.2 0-6.9-3.5-6.9-8.3v-37.4c-.1-4.8.7-8.3 6.8-8.3z"/></g><g style="isolation:isolate"><path fill="#616b6b" d="M111.7 146.6l.5-.6h2.4l-.5.6h-2.4z"/><g clip-path="url(#e)" style="isolation:isolate"><path fill="#677272" d="M127.5 159.7l.5-.6a12.7 12.7 0 0 0 .2 2.2l-.6.6a15.5 15.5 0 0 1-.1-2.2"/><path fill="#6b7676" d="M127.6 161.9l.6-.6a7.4 7.4 0 0 0 .3 1.8l-.5.6a8 8 0 0 1-.4-1.8"/><path fill="#6e7a7a" d="M128 163.7l.5-.6a5.7 5.7 0 0 0 .6 1.5l-.5.6a11.6 11.6 0 0 1-.6-1.5"/><path fill="#727d7d" d="M128.6 165.2l.5-.6.6.7-.6.5-.5-.6"/><path fill="#6e7a7a" d="M129.1 165.8l.6-.5-.5.6h-.1"/></g><path fill="#656f6f" d="M118.7 150.8l.5-.5v15l-.5.6v-15.1z"/><g clip-path="url(#f)" style="isolation:isolate"><path fill="#646e6e" d="M118.7 146.6l.5-.6h1.1l-.5.6h-1.1"/><path fill="#606a6a" d="M119.8 146.6l.5-.6h.4l-.5.5h-.4"/><path fill="#5d6767" d="M120.2 146.5l.5-.5h.5l-.6.5h-.4"/><path fill="#596363" d="M120.6 146.4l.6-.5a1.6 1.6 0 0 0 .8-.6l-.5.6a2.6 2.6 0 0 1-.9.5"/></g><path fill="#616b6b" d="M124.7 147.6l.5-.5h2.8l-.5.5h-2.8z"/><path fill="#656f6f" d="M127.5 147.6l.5-.5v12l-.5.6v-12.1z"/><g clip-path="url(#g)" style="isolation:isolate"><path fill="#677272" d="M127.5 138.9l.5-.5v.9l-.5.6v-1"/><path fill="#646e6e" d="M127.5 139.9l.5-.6a26.9 26.9 0 0 1-.2 3.1l-.6.5a23.3 23.3 0 0 0 .3-3"/><path fill="#606a6a" d="M127.2 142.9l.6-.5c-.1.6-.3 1.1-.4 1.6l-.5.5.3-1.6"/><path fill="#5d6767" d="M126.9 144.5l.5-.5a3.7 3.7 0 0 1-.5 1.1l-.5.6.5-1.2"/><path fill="#596363" d="M126.4 145.7l.5-.6a5 5 0 0 1-1 1.4l-.6.6a7.6 7.6 0 0 0 1.1-1.4"/></g><path fill="#656f6f" d="M118.7 117.2l.5-.5V146l-.5.6v-29.4zm8.8 4.2l.5-.6v17.6l-.5.5v-17.5z"/><path fill="#616b6b" d="M114 112.8l.6-.5h5.7l-.6.5H114z"/><path fill="#94a3a3" d="M127.5 159.7c0 4.9 1.6 6.1 1.7 6.2h-4.5c-.1 0-1.8-.6-1.8-6.2v-8.9h-4.2v15.1h-4.6v-15.1h-4.2l1.8-4.2h2.4v-33.8h5.7c6 0 7.8 2 7.8 8.6v17.5c0 4.8-.7 7.1-2.8 8.7h2.8zm-4.6-20.3v-19.3c0-2.4-.5-2.9-3-2.9h-1.2v29.4h1c2.4 0 3.2-2.3 3.2-7.2"/><g clip-path="url(#h)" style="isolation:isolate"><path fill="#646e6e" d="M119.7 112.8l.6-.5h2.4l-.5.6-2.5-.2"/><path fill="#677272" d="M122.2 113l.5-.6 1.3.3-.5.6a5 5 0 0 0-1.3-.3"/><path fill="#6b7676" d="M123.5 113.3l.5-.6 1 .4-.5.5-1-.3"/><path fill="#6e7a7a" d="M124.5 113.6l.5-.5 1 .6-.5.6-1-.7"/><path fill="#727d7d" d="M125.5 114.3l.5-.6.9 1-.6.6a2.7 2.7 0 0 0-.8-1"/><path fill="#6e7a7a" d="M126.3 115.3l.6-.6.6 1.5-.5.6a5.2 5.2 0 0 0-.7-1.5"/><path fill="#6b7676" d="M127 116.8l.5-.6a11.6 11.6 0 0 1 .4 1.8l-.6.6q-.1-1-.3-1.8"/><path fill="#677272" d="M127.3 118.6l.6-.6a24.4 24.4 0 0 1 .1 2.8l-.5.6a21.6 21.6 0 0 0-.2-2.8"/></g></g><g style="isolation:isolate"><g clip-path="url(#i)" style="isolation:isolate"><path fill="#677272" d="M138.3 158.5l.6-.5v1l-.5.5a3.1 3.1 0 0 1-.1-1"/><path fill="#6b7676" d="M138.4 159.5l.5-.5a6.4 6.4 0 0 1 .2.7l-.6.5c0-.2-.1-.4-.1-.7"/><path fill="#6e7a7a" d="M138.5 160.2l.6-.5a1.4 1.4 0 0 0 .2.6l-.5.5-.3-.6"/><path fill="#727d7d" d="M138.8 160.8l.5-.5.4.4-.5.6-.4-.5"/><path fill="#6e7a7a" d="M139.2 161.3l.5-.6.5.4-.5.5-.5-.3"/><path fill="#6b7676" d="M139.7 161.6l.5-.5h.5l-.6.6-.4-.2"/><path fill="#677272" d="M140.1 161.8l.6-.6.6.2-.5.5h-.7"/><path fill="#646e6e" d="M140.8 161.9l.5-.5h1l-.6.6h-.9"/><path fill="#606a6a" d="M141.7 162l.6-.6a8.2 8.2 0 0 0 2.1-.2l-.5.6-2.2.2"/><path fill="#5d6767" d="M143.9 161.8l.5-.6 2.1-.4-.6.6-2 .4"/></g><path fill="#656f6f" d="M145.9 161.4l.6-.6v4.5l-.6.5v-4.4z"/><path fill="#616b6b" d="M131.3 146.6l.6-.6h2.4l-.5.6h-2.5z"/><path fill="#656f6f" d="M138.3 150.8l.6-.5v7.7l-.6.5v-7.7z"/><path fill="#616b6b" d="M138.3 146.6l.6-.6h6.7l-.5.6h-6.8z"/><path fill="#656f6f" d="M145.1 146.6l.5-.6v4.3l-.5.5v-4.2zm-6.8-26.4l.6-.5V146l-.6.6v-26.4z"/><g clip-path="url(#j)" style="isolation:isolate"><path fill="#596363" d="M139.1 117.6l.5-.6-.4.5-.5.6a1 1 0 0 1 .4-.5"/><path fill="#5d6767" d="M138.7 118.1l.5-.6c0 .2-.1.3-.1.5l-.6.5c.1-.1.1-.3.2-.4"/><path fill="#606a6a" d="M138.5 118.5l.6-.5c-.1.1-.1.3-.2.5l-.5.6c0-.2.1-.4.1-.6"/><path fill="#646e6e" d="M138.4 119.1l.5-.6v.9l-.6.6c0-.3.1-.7.1-.9"/><path fill="#677272" d="M138.3 120l.6-.6v.3l-.6.5v-.2"/></g><g clip-path="url(#k)" style="isolation:isolate"><path fill="#596363" d="M135.5 114l.5-.6a4.3 4.3 0 0 1 2-1.1l-.5.5a4.8 4.8 0 0 0-2 1.2"/><path fill="#5d6767" d="M137.5 112.8l.5-.5a2.8 2.8 0 0 1 1.3-.3l-.5.5-1.3.3"/><path fill="#606a6a" d="M138.8 112.5l.5-.5 1.8-.2-.5.6h-1.8"/><path fill="#646e6e" d="M140.6 112.4l.5-.6h.1l-.6.6"/></g><path fill="#656f6f" d="M145.9 113l.6-.6v4.5l-.6.5V113z"/><g clip-path="url(#l)" style="isolation:isolate"><path fill="#646e6e" d="M140.6 112.4l.6-.6 3.1.3-.6.5a17.2 17.2 0 0 0-3.1-.2"/><path fill="#677272" d="M143.7 112.6l.6-.5 2.2.3-.6.6-2.2-.4"/></g><path fill="#94a3a3" d="M140.6 112.4a28.6 28.6 0 0 1 5.3.6v4.4a20.8 20.8 0 0 0-4.2-.6c-2.9 0-3.4 1.4-3.4 3.4v26.4h6.8v4.2h-6.8v7.7c0 2.1.5 3.5 3.4 3.5a19.9 19.9 0 0 0 4.2-.6v4.4a28.5 28.5 0 0 1-5.2.6c-6.2 0-6.9-3.5-6.9-8.3v-7.3h-4.3l1.8-4.2h2.5v-25.9c0-4.8.7-8.3 6.8-8.3z"/></g><g style="isolation:isolate"><path fill="#616b6b" d="M162.9 146.6l.5-.6h2.4l-.6.6h-2.3z"/><g clip-path="url(#m)" style="isolation:isolate"><path fill="#677272" d="M178.7 159.7l.5-.6c0 .9.1 1.6.1 2.2l-.5.6a15.5 15.5 0 0 1-.1-2.2"/><path fill="#6b7676" d="M178.8 161.9l.5-.6a17.2 17.2 0 0 0 .4 1.8l-.5.6a8 8 0 0 1-.4-1.8"/><path fill="#6e7a7a" d="M179.2 163.7l.5-.6a5.7 5.7 0 0 0 .6 1.5l-.5.6a11.6 11.6 0 0 1-.6-1.5"/><path fill="#727d7d" d="M179.8 165.2l.5-.6.6.7-.6.5-.5-.6"/><path fill="#6e7a7a" d="M180.3 165.8l.6-.5-.5.6h-.1"/></g><path fill="#656f6f" d="M169.9 150.8l.5-.5v15l-.5.6v-15.1z"/><g clip-path="url(#n)" style="isolation:isolate"><path fill="#646e6e" d="M169.9 146.6l.5-.6h1.1l-.6.6h-1"/><path fill="#606a6a" d="M170.9 146.6l.6-.6h.4l-.5.5h-.5"/><path fill="#5d6767" d="M171.4 146.5l.5-.5h.5l-.6.5h-.4"/><path fill="#596363" d="M171.8 146.4l.6-.5.8-.5-.5.5-.9.5"/></g><path fill="#656f6f" d="M178.7 147.6l.5-.5v12l-.5.6v-12.1z"/><path fill="#616b6b" d="M175.9 147.6l.5-.5h2.8l-.5.5h-2.8z"/><g clip-path="url(#o)" style="isolation:isolate"><path fill="#677272" d="M178.7 138.9l.5-.5v.9l-.5.6v-1"/><path fill="#646e6e" d="M178.7 139.9l.5-.6a26.9 26.9 0 0 1-.2 3.1l-.6.5a23.3 23.3 0 0 0 .3-3"/><path fill="#606a6a" d="M178.4 142.9l.6-.5c-.1.6-.3 1.1-.4 1.6l-.6.5a7.5 7.5 0 0 0 .4-1.6"/><path fill="#5d6767" d="M178 144.5l.6-.5a3.7 3.7 0 0 1-.5 1.1l-.5.6a5.6 5.6 0 0 0 .4-1.2"/><path fill="#596363" d="M177.6 145.7l.5-.6a5 5 0 0 1-1 1.4l-.6.6a7.6 7.6 0 0 0 1.1-1.4"/></g><path fill="#656f6f" d="M157.7 117.2l.5-.5.1 48.6-.6.6v-48.7z"/><path fill="#94a3a3" d="M161.5 112.8v4.4h-3.8v48.7h-4.5v-48.7h-5l1.8-4.4h11.5z"/><path fill="#656f6f" d="M161.5 112.8l.5-.5v4.4l-.5.5v-4.4z"/><path fill="#616b6b" d="M150 112.8l.5-.5H162l-.5.5H150z"/><path fill="#656f6f" d="M169.9 117.2l.5-.5V146l-.5.6v-29.4zm8.8 4.2l.5-.6v17.6l-.5.5v-17.5z"/><path fill="#616b6b" d="M165.2 112.8l.6-.5h5.7l-.6.5h-5.7z"/><g clip-path="url(#p)" style="isolation:isolate"><path fill="#646e6e" d="M170.9 112.8l.6-.5h2.4l-.5.6-2.5-.2"/><path fill="#677272" d="M173.4 113l.5-.6 1.3.3-.5.6a6.1 6.1 0 0 0-1.3-.3"/><path fill="#6b7676" d="M174.7 113.3l.5-.6 1 .4-.5.5-1-.3"/><path fill="#6e7a7a" d="M175.7 113.6l.5-.5 1 .6-.6.6a3.1 3.1 0 0 0-.9-.7"/><path fill="#727d7d" d="M176.6 114.3l.6-.6.9 1.1-.6.5a2.8 2.8 0 0 0-.9-1"/><path fill="#6e7a7a" d="M177.5 115.3l.6-.5.6 1.4-.5.6a5.2 5.2 0 0 0-.7-1.5"/><path fill="#6b7676" d="M178.2 116.8l.5-.6a11.6 11.6 0 0 1 .4 1.8l-.6.6q-.1-1-.3-1.8"/><path fill="#677272" d="M178.5 118.6l.6-.6a24.4 24.4 0 0 1 .1 2.8l-.5.6a21.6 21.6 0 0 0-.2-2.8"/></g><path fill="#94a3a3" d="M178.7 159.7c0 4.9 1.6 6.1 1.7 6.2h-4.5c-.1 0-1.8-.6-1.8-6.2v-8.9h-4.2v15.1h-4.6v-15.1h-4.2l1.8-4.2h2.3v-33.8h5.7c6 0 7.8 2 7.8 8.6v17.5c0 4.8-.8 7.1-2.8 8.7h2.8zm-4.6-20.3v-19.3c0-2.4-.5-2.9-3-2.9h-1.2v29.4h1c2.3 0 3.2-2.3 3.2-7.2"/></g><g style="isolation:isolate"><g clip-path="url(#q)" style="isolation:isolate"><path fill="#677272" d="M187.4 159.7l.5-.5c0 .3.1.5.1.7l-.6.5v-.7"/><path fill="#6b7676" d="M187.4 160.4l.6-.5a.7.7 0 0 0 .1.5l-.5.6c-.1-.2-.1-.4-.2-.6"/><path fill="#6e7a7a" d="M187.6 161l.5-.6c.1.2.1.4.2.5l-.5.6c-.1-.2-.2-.3-.2-.5"/><path fill="#727d7d" d="M187.8 161.5l.5-.6.3.4-.5.5-.3-.3"/><path fill="#6e7a7a" d="M188.1 161.8l.5-.5.3.2-.5.5-.3-.2"/><path fill="#6b7676" d="M188.4 162l.5-.5h.3l-.5.5h-.3"/><path fill="#677272" d="M188.7 162.1l.5-.5h.4l-.6.5h-.3"/><path fill="#646e6e" d="M189 162.2l.6-.5h.5l-.6.5h-.5"/><path fill="#606a6a" d="M189.5 162.2l.6-.5h.5l-.5.5h-.6"/><path fill="#5d6767" d="M190.1 162.2l.5-.5h.4l-.6.5h-.3"/><path fill="#596363" d="M190.4 162.1l.6-.5a1 1 0 0 0 .5-.4l-.5.6-.6.3"/></g><g clip-path="url(#r)" style="isolation:isolate"><path fill="#677272" d="M196.2 159.3l.5-.5v.3l-.5.6v-.4"/><path fill="#646e6e" d="M196.2 159.7l.5-.6a8.1 8.1 0 0 1-.1 1.6l-.5.6c0-.5.1-1.1.1-1.6"/><path fill="#606a6a" d="M196.1 161.3l.5-.6-.3 1.2-.5.6.3-1.2"/><path fill="#5d6767" d="M195.8 162.5l.5-.6c-.1.4-.3.8-.4 1.1l-.6.5c.2-.3.3-.7.5-1"/><path fill="#596363" d="M195.3 163.5l.6-.5a6.4 6.4 0 0 1-1 1.3l-.5.5a4.3 4.3 0 0 0 .9-1.3"/></g><path fill="#656f6f" d="M187.4 119.1l.5-.6v40.7l-.5.5v-40.6z"/><g clip-path="url(#s)" style="isolation:isolate"><path fill="#596363" d="M188 117l.5-.6-.2.4-.6.5.3-.3"/><path fill="#5d6767" d="M187.7 117.3l.6-.5-.2.3-.5.6c0-.1.1-.3.1-.4"/><path fill="#606a6a" d="M187.6 117.7l.5-.6c0 .2-.1.3-.1.5l-.5.5a.6.6 0 0 1 .1-.4"/><path fill="#646e6e" d="M187.5 118.1l.5-.5c0 .2-.1.5-.1.7l-.5.6a2.2 2.2 0 0 1 .1-.8"/><path fill="#677272" d="M187.4 118.9l.5-.6v.2l-.5.6v-.2"/></g><path fill="#656f6f" d="M196.2 119.4l.5-.6v40l-.5.5v-39.9z"/><g clip-path="url(#t)" style="isolation:isolate"><path fill="#596363" d="M184.6 113.9l.6-.5a5.7 5.7 0 0 1 2.1-1.3l-.6.5a5.7 5.7 0 0 0-2.1 1.3"/><path fill="#5d6767" d="M186.7 112.6l.6-.5 1.2-.3-.5.6-1.3.2"/><path fill="#606a6a" d="M188 112.4l.5-.6h1.4l-.5.5-1.4.2"/><path fill="#646e6e" d="M189.4 112.2l.5-.5h.1l-.6.5"/></g><path fill="#94a3a3" d="M189.4 112.2c3.2 0 6.8 1.4 6.8 7.2v39.9c0 5.9-3.6 7.2-6.7 7.2s-6.7-1.5-6.7-7.2v-39.9c0-5.6 3.2-7.2 6.6-7.2zm2.2 47.5v-40.6c0-2.1-.8-2.6-2.1-2.6s-2.1.6-2.1 2.6v40.6c0 2 .7 2.5 2.1 2.5s2.1-.5 2.1-2.5"/><g clip-path="url(#u)" style="isolation:isolate"><path fill="#646e6e" d="M189.4 112.2l.6-.5h1.3l-.5.5h-1.4"/><path fill="#677272" d="M190.8 112.3l.5-.5 1.2.2-.6.6-1.1-.3"/><path fill="#6b7676" d="M191.9 112.6l.6-.6 1 .4-.6.5-1-.3"/><path fill="#6e7a7a" d="M192.9 112.9l.6-.5 1.1.8-.5.5-1.2-.8"/><path fill="#727d7d" d="M194.1 113.7l.5-.5a4.3 4.3 0 0 1 1.1 1.2l-.6.5-1-1.2"/><path fill="#6e7a7a" d="M195.1 114.9l.6-.5a6.9 6.9 0 0 1 .7 1.5l-.6.6a7.7 7.7 0 0 0-.7-1.6"/><path fill="#6b7676" d="M195.8 116.5l.6-.6a7.7 7.7 0 0 1 .2 1.5l-.5.5-.3-1.4"/><path fill="#677272" d="M196.1 117.9l.5-.5a6.1 6.1 0 0 1 .1 1.4l-.5.6a7.6 7.6 0 0 0-.1-1.5"/></g></g></symbol></svg>